<svg width="240" height="44" viewBox="0 0 240 44" fill="none" xmlns="http://www.w3.org/2000/svg">
<path d="M16.5558 42.2358L16.7345 41.9087C16.8536 41.6808 16.8834 41.4133 16.8437 41.1655L16.8139 40.8583L17.0025 41.0169C17.2109 41.1853 17.4094 41.3439 17.6179 41.4925L17.7568 41.5916L16.5558 42.2358ZM39.8511 25.5574C39.8511 25.5475 39.8511 25.5475 39.8511 25.5376C39.8511 25.5277 39.8511 25.5277 39.8511 25.5178C39.8511 25.5078 39.8412 25.5078 39.8412 25.5078C39.8412 25.5078 39.8313 25.4979 39.8214 25.4979C39.8114 25.4979 39.8114 25.4979 39.8015 25.4979C39.7916 25.4979 39.7916 25.4979 39.7817 25.4979C39.7717 25.4979 39.7717 25.5078 39.7717 25.5078C39.7717 25.5078 39.7618 25.5178 39.7618 25.5277C39.5534 26.1223 39.3152 26.7466 39.067 27.2718C38.9181 27.4502 38.6402 27.7772 38.4318 27.8466C38.6402 27.579 38.7792 27.2619 38.8288 26.925C39.1861 26.2709 39.464 25.5772 39.6625 24.8637C39.6625 24.8538 39.6625 24.8538 39.6625 24.8439C39.6625 24.834 39.6625 24.834 39.6526 24.8241C39.6526 24.8141 39.6427 24.8141 39.6427 24.8141C39.6427 24.8141 39.6328 24.8042 39.6228 24.8042C39.6129 24.8042 39.6129 24.8042 39.603 24.8042C39.5931 24.8042 39.5931 24.8042 39.5831 24.8141C39.5732 24.8141 39.5732 24.8241 39.5732 24.8241C39.5732 24.834 39.5633 24.834 39.5633 24.8439C39.3946 25.4781 39.1563 26.0925 38.8586 26.6772C38.8884 26.4096 38.8983 26.152 38.8884 25.8844C39.1861 25.27 39.4045 24.6259 39.5434 23.952C39.5434 23.9421 39.5434 23.9421 39.5434 23.9322C39.5434 23.9223 39.5434 23.9223 39.5335 23.9123C39.5335 23.9024 39.5236 23.9024 39.5236 23.9024C39.5236 23.9024 39.5137 23.8925 39.5037 23.8925C39.4938 23.8925 39.4839 23.8925 39.474 23.9024C39.464 23.9123 39.4541 23.9223 39.4541 23.9322C39.3251 24.5367 39.1365 25.1214 38.8884 25.6862C38.8884 25.5078 38.8784 25.3493 38.8784 25.2205C38.8784 25.1412 38.8784 25.0619 38.8784 24.9925C39.1166 24.2096 39.3052 23.4168 39.4442 22.6141C39.4442 22.6042 39.4442 22.6042 39.4442 22.5943C39.4442 22.5844 39.4442 22.5844 39.4343 22.5745L39.4243 22.5646C39.4144 22.5646 39.4144 22.5547 39.4045 22.5547C39.3946 22.5547 39.3846 22.5547 39.3747 22.5646C39.3648 22.5745 39.3549 22.5844 39.3549 22.5943C39.196 23.4664 38.9876 24.3286 38.7196 25.1808C38.6501 25.2799 38.5807 25.379 38.5112 25.4682C38.4715 25.5078 38.4417 25.5475 38.4219 25.5772C38.3325 25.706 38.2233 25.8646 38.1142 26.043C38.3524 25.2799 38.6005 24.4277 38.7494 23.7637C38.7494 23.7538 38.7494 23.7439 38.7395 23.734C38.7295 23.7241 38.7196 23.7141 38.7097 23.7141C38.6998 23.7141 38.6898 23.7141 38.6799 23.7241C38.67 23.734 38.6601 23.7439 38.6601 23.7538C38.5013 24.5168 38.1936 25.5376 37.9156 26.37C37.7271 26.6673 37.5782 26.9943 37.4789 27.3313C37.4293 27.0042 37.4392 26.6673 37.5286 26.3403C37.8263 25.5475 38.0844 24.7448 38.3027 23.9322C38.3027 23.9223 38.3027 23.9223 38.3027 23.9123C38.3027 23.9024 38.3027 23.9024 38.2928 23.8925C38.2928 23.8826 38.2829 23.8826 38.2829 23.8826C38.2829 23.8826 38.273 23.8727 38.263 23.8727C38.2531 23.8727 38.2531 23.8727 38.2432 23.8727C38.2333 23.8727 38.2333 23.8727 38.2233 23.8826C38.2134 23.8826 38.2134 23.8925 38.2134 23.8925C38.2134 23.9024 38.2035 23.9024 38.2035 23.9123C37.9454 24.8835 37.6278 25.8448 37.2506 26.7664C37.2407 26.7763 37.2407 26.7862 37.2407 26.7862C36.9429 27.1925 36.7147 27.6484 36.5856 28.1439C36.4467 27.5592 36.9032 26.4295 37.0422 26.0232C35.6228 29.1349 33.3499 31.5529 30.4715 33.4853C27.5931 35.4178 24.2283 36.4979 20.7544 36.6069C20.5658 36.6169 20.3673 36.6169 20.1787 36.6169C16.1687 36.6169 12.2779 35.3187 9.07196 32.9105C5.86601 30.5024 3.5335 27.4105 2.42184 23.5655C2.19355 23.2286 1.86601 22.9114 1.53846 22.9114C1.44913 22.9214 1.36973 22.9412 1.29032 22.9808C1.21092 23.0205 1.15137 23.0799 1.10174 23.1493C0.476427 23.843 1.27047 24.6259 1.36973 24.7051C1.41936 24.7547 1.45906 24.8141 1.47891 24.8736C1.49876 24.943 1.50869 25.0123 1.49876 25.0718C1.47891 25.1808 1.38958 25.2601 1.2407 25.3196C1.12159 25.3592 1.02233 25.4286 0.933003 25.5277C0.853598 25.6268 0.794045 25.7358 0.774194 25.8547C0.754343 26.0033 0.774194 26.152 0.823822 26.2907L0.913152 26.4889L0.694789 26.4592C0.655087 26.4592 0.595534 26.4592 0.545906 26.4592C0.377171 26.4493 0.208437 26.4988 0.0694789 26.6078C0.0397022 26.6376 0.0198511 26.6673 0.00992556 26.697C0 26.7268 0 26.7664 0 26.7961C0.0595534 27.3114 0.754343 27.8169 0.754343 27.8169C0.744417 27.8565 0.744417 27.906 0.754343 27.9457C0.764268 27.9853 0.784119 28.0349 0.803971 28.0646C0.833747 28.1042 0.863524 28.134 0.903226 28.1538C0.942928 28.1736 0.982631 28.1934 1.03226 28.2033C1.12159 28.2331 1.22084 28.243 1.3201 28.243C1.3598 28.243 1.3995 28.243 1.43921 28.2331C1.43921 28.2331 1.55831 28.2232 1.62779 28.2132C1.2804 28.5304 1.50869 30.0268 2.98759 30.1754C3.05707 30.1853 3.12655 30.1853 3.19603 30.1754C2.51117 31.1069 3.68238 31.5826 3.68238 31.9592C3.68238 32.1178 3.4938 32.2664 3.32506 32.3655C3.09678 32.4943 2.81886 32.5934 2.81886 32.9502C2.81886 33.3565 3.05707 33.7529 3.99008 33.7529C4.31762 33.7529 4.67494 33.7826 4.67494 34.0205C4.67494 34.1196 4.54591 34.2286 4.40695 34.3178C4.23822 34.4367 4.0397 34.5556 4.0397 34.7637C4.0397 34.8132 4.02978 35.2592 4.72457 35.497L5.01241 35.5862L4.74442 35.7151C4.66501 35.7448 4.60546 35.7943 4.55583 35.8538C4.50621 35.9232 4.47643 35.9925 4.47643 36.0718C4.4665 36.2799 4.64516 36.4781 5.02233 36.6268C5.30025 36.7259 5.58809 36.7952 5.88586 36.8151L5.90571 36.8646L5.93549 36.9042C5.96526 36.934 5.99504 36.9637 6.03474 36.9835C6.07444 37.0033 6.11415 37.0133 6.15385 37.0232L6.27296 37.0331V37.152C6.27296 37.2313 6.29281 37.3006 6.32258 37.37C6.35236 37.4394 6.40199 37.4988 6.46154 37.5484C6.61042 37.7069 6.77916 37.8457 6.95782 37.9745L7.25559 38.1826L6.89827 38.2024C6.33251 38.2322 5.85608 38.5691 5.77668 38.9853C5.75683 39.0844 5.75683 39.1835 5.77668 39.2826C5.79653 39.3817 5.83623 39.4709 5.89578 39.5601C6.06452 39.7484 6.30273 39.8772 6.55087 39.897C6.57072 39.897 6.6005 39.897 6.62035 39.897C6.77916 39.8871 6.93797 39.8673 7.09678 39.8178C7.39454 39.7484 7.4938 39.7484 7.62283 40.1349C7.73201 40.452 7.81142 40.67 8.10918 40.67H8.29777C8.29777 40.67 7.9206 41.77 8.37717 42.1763C8.43673 42.216 8.50621 42.2358 8.57569 42.2259C8.82382 42.2259 9.16129 41.9087 9.41936 41.5916C9.77668 41.1655 10.0744 41.1259 10.1141 41.1259H10.1539L10.1836 41.1457C10.3027 41.2151 10.4318 41.2646 10.5707 41.2844C10.6402 41.3042 10.7097 41.334 10.7692 41.3835C10.8288 41.4331 10.8685 41.5024 10.8883 41.5718C10.9082 41.6511 10.9082 41.7304 10.8784 41.7997C10.8586 41.879 10.8089 41.9385 10.7494 41.988C10.5608 42.1862 10.4615 42.4538 10.4615 42.7214C10.4516 42.8403 10.4715 42.9592 10.5112 43.0781C10.5509 43.1871 10.6104 43.2961 10.6898 43.3853C10.7692 43.4646 10.8685 43.534 10.9777 43.5736C11.0869 43.6133 11.206 43.6331 11.3151 43.6331C11.4541 43.643 11.603 43.6232 11.732 43.5637C11.861 43.5042 11.9802 43.425 12.0695 43.316C12.2481 43.1078 12.3474 42.8403 12.3275 42.5628C12.3176 42.5133 12.3176 42.4538 12.3275 42.4042C12.3375 42.3547 12.3673 42.3051 12.397 42.2556C12.4169 42.2259 12.4467 42.206 12.4864 42.1961C12.5161 42.1862 12.5558 42.1763 12.5856 42.1763C12.665 42.1763 12.7345 42.206 12.794 42.2457C12.9429 42.3745 13.1315 42.4538 13.3201 42.4637C13.4591 42.4637 13.598 42.4042 13.7072 42.325C13.7965 42.2655 13.866 42.1763 13.9057 42.0673L13.9653 41.8889L14.1042 42.0277C14.1638 42.0871 14.2333 42.1466 14.3127 42.1763C14.3921 42.216 14.4814 42.2259 14.5707 42.2259C14.7395 42.2259 14.8983 42.1763 15.0372 42.0871L15.2159 41.9484L15.2258 42.1763V42.206C15.2258 42.2655 15.2457 42.325 15.2754 42.3844C15.3052 42.434 15.3449 42.4835 15.4045 42.5232C15.6526 42.6817 16.0893 42.4835 16.0893 42.4835C16.0893 42.4835 15.4243 42.87 15.3449 42.9394C15.3251 42.9592 15.3052 42.979 15.2953 43.0087C15.2854 43.0385 15.2854 43.0682 15.2854 43.0979C15.3151 43.316 15.7022 43.3952 15.9603 43.3952C16.0496 43.3952 16.139 43.3853 16.2184 43.3655C16.3474 43.3358 16.4665 43.2862 16.5757 43.2268C16.5757 43.2268 17.7072 42.3943 18.5509 42.097C17.9454 42.4439 17.3697 42.8304 16.804 43.2466C16.7543 43.2862 16.7146 43.3259 16.6948 43.3853C16.6749 43.4448 16.665 43.5042 16.6749 43.5637C16.7345 43.8214 17.2606 43.8709 17.4094 43.8709C17.6774 43.8709 18.2333 43.7421 18.4119 43.5736C18.4218 43.5637 18.4318 43.5538 18.4417 43.534L18.4516 43.5241C18.7593 43.1871 19.1067 42.8898 19.4938 42.6421L19.5534 42.6024L19.6228 42.6421C20.0099 42.8601 20.8139 43.3358 21.2407 43.5835L21.3697 43.6628V43.6529L21.5087 43.7421C21.5682 43.7817 21.6477 43.8015 21.7171 43.8115C21.8362 43.8313 21.9553 43.8313 22.0844 43.8313C22.8288 43.8313 23.3548 43.534 23.3648 43.2763C23.3648 43.2268 23.3548 43.1772 23.3251 43.1376C23.2953 43.0979 23.2556 43.0682 23.2159 43.0484L23.206 43.0385C22.8586 42.8898 21.6179 42.3051 20.7444 41.879L21.4591 41.9484L21.5186 41.9682C21.9553 42.0178 23.0174 42.6223 23.603 42.979L23.6228 42.9889C23.7519 43.0484 23.8908 43.0781 24.0298 43.0781C24.3176 43.0781 24.7841 42.9592 24.8338 42.7214C24.8437 42.652 24.8338 42.5925 24.804 42.5331C24.7742 42.4736 24.7246 42.434 24.6551 42.4042L21.8859 41.3042L21.9454 41.0862V41.0763C23.4839 41.7304 25.0521 42.2952 26.6402 42.7709L26.5013 42.8898C26.3127 43.0385 25.7568 43.4051 24.5658 43.5835C24.933 43.6628 25.3201 43.6925 25.6973 43.6826C26.5807 43.6628 27.4442 43.4547 28.2382 43.0781C28.2879 42.6619 28.3673 42.2457 28.4764 41.8394L28.4963 41.7502L29.2506 41.7304L29.0918 41.9286C28.9628 42.1069 28.8635 42.3051 28.7941 42.5033C29.3797 42.2556 29.9454 41.9385 30.4715 41.5817C30.7196 41.2745 30.8983 40.9277 30.9876 40.5412C30.9678 40.5114 30.9479 40.4718 30.9181 40.4421C30.1638 40.5313 28.1787 40.6601 27.5335 40.5709C27.5633 40.5412 27.7022 40.4718 27.7717 40.4322C28.9231 40.4124 30.0645 40.2042 31.1563 39.8178C31.3251 39.7484 31.5037 39.6988 31.6824 39.6592C32.4367 39.4412 33.1613 39.1241 33.8362 38.7078C33.8462 38.7078 33.8462 38.6979 33.8462 38.6979C33.8462 38.6979 33.8561 38.688 33.8561 38.6781C33.8561 38.6682 33.8561 38.6682 33.8561 38.6583C33.8561 38.6484 33.8561 38.6484 33.8462 38.6385C33.8462 38.6286 33.8362 38.6286 33.8362 38.6286C33.8362 38.6286 33.8263 38.6187 33.8164 38.6187C33.8065 38.6187 33.8065 38.6187 33.7965 38.6187C33.7866 38.6187 33.7866 38.6187 33.7767 38.6286C32.5658 39.3223 31.8015 39.57 30.9281 39.7286C30.2035 39.8078 29.2903 39.3916 29.2903 39.3916C30.3623 39.5304 31.9702 38.916 33.201 38.2322C33.9057 37.9448 34.5707 37.5484 35.1663 37.0628L35.1762 37.0529C35.1762 37.043 35.1762 37.043 35.1762 37.0331C35.1762 37.0232 35.1762 37.0232 35.1762 37.0132C35.1762 37.0033 35.1762 37.0033 35.1663 36.9934L35.1563 36.9835C35.1464 36.9835 35.1464 36.9835 35.1365 36.9835C35.1266 36.9835 35.1266 36.9835 35.1166 36.9835C35.1067 36.9835 35.1067 36.9835 35.0968 36.9934C34.6303 37.3799 34.1241 37.7069 33.5683 37.9646C32.8933 38.1628 32.1886 38.2123 31.4938 38.1033C32.2382 38.0439 33.2109 37.5484 33.9851 37.0628C34.8685 36.6169 35.7022 36.0916 36.4864 35.4871C36.4963 35.4772 36.5062 35.4673 36.5062 35.4574C36.5062 35.4475 36.5062 35.4376 36.4963 35.4277C36.4864 35.4178 36.4764 35.4078 36.4665 35.4078C36.4566 35.4078 36.4467 35.4078 36.4367 35.4178C35.8015 35.9033 35.1365 36.3394 34.4318 36.7259C33.8958 36.8349 33.34 36.8349 32.804 36.7259C33.9156 36.6565 34.8089 36.0916 35.6427 35.3979C36.2879 34.9817 36.9032 34.506 37.469 33.9709L37.4789 33.961C37.4789 33.9511 37.4789 33.9511 37.4789 33.9412C37.4789 33.9313 37.4789 33.9313 37.4789 33.9214C37.4789 33.9114 37.469 33.9114 37.469 33.9015L37.4591 33.8916C37.4491 33.8916 37.4491 33.8916 37.4392 33.8916C37.4293 33.8916 37.4293 33.8916 37.4194 33.8916C37.4094 33.8916 37.4094 33.9015 37.3995 33.9015C36.9032 34.3673 36.3673 34.7934 35.8114 35.17C35.2357 35.3682 34.6303 35.4277 34.0248 35.3682C35.067 35.2691 35.8511 34.6349 36.4367 34.0502C36.9727 33.6241 37.4789 33.1484 37.9454 32.643C37.9553 32.6331 37.9553 32.6232 37.9553 32.6132C37.9553 32.6033 37.9454 32.5934 37.9454 32.5835C37.9355 32.5736 37.9256 32.5736 37.9156 32.5736C37.9057 32.5736 37.8958 32.5736 37.8859 32.5835C37.5385 32.9601 37.1613 33.3268 36.7742 33.6637C36.4566 33.8421 36.0993 33.9313 35.732 33.9214C36.2283 33.7628 36.9926 33.0592 37.4888 32.4051C38.1737 31.6916 38.7891 30.9187 39.3152 30.0763C39.3152 30.0664 39.3251 30.0664 39.3251 30.0565C39.3251 30.0466 39.3251 30.0466 39.3251 30.0367C39.3251 30.0268 39.3251 30.0268 39.3152 30.0169C39.3152 30.0069 39.3052 30.0069 39.3052 30.0069C39.2953 30.0069 39.2953 29.997 39.2854 29.997C39.2754 29.997 39.2755 29.997 39.2655 29.997C39.2556 29.997 39.2556 29.997 39.2457 30.0069C39.2357 30.0069 39.2357 30.0169 39.2357 30.0169C38.7395 30.7997 38.1638 31.5331 37.5385 32.2069C37.2804 32.2664 37.0124 32.306 36.7444 32.316C37.2209 32.1078 37.4988 31.5232 38.0546 30.7403C38.5906 30.1457 39.0571 29.4916 39.4442 28.7979C39.4541 28.788 39.4541 28.7781 39.4442 28.7682C39.4442 28.7583 39.4343 28.7484 39.4243 28.7385C39.4144 28.7286 39.4045 28.7286 39.3946 28.7385C39.3846 28.7385 39.3747 28.7484 39.3648 28.7583C39.0571 29.3132 38.6998 29.8385 38.2928 30.3241C38.1241 30.5024 37.8958 30.6114 37.6576 30.6511C38.0546 30.2051 38.3821 29.7096 38.6402 29.1745C39.0273 28.6493 39.3549 28.0745 39.603 27.47C39.603 27.4601 39.603 27.4601 39.603 27.4502C39.603 27.4403 39.603 27.4403 39.603 27.4304C39.603 27.4205 39.5931 27.4205 39.5931 27.4105C39.5931 27.4105 39.5831 27.4006 39.5732 27.4006C39.5633 27.4006 39.5633 27.4006 39.5534 27.4006C39.5434 27.4006 39.5434 27.4006 39.5335 27.4006C39.5236 27.4006 39.5236 27.4105 39.5137 27.4105L39.5037 27.4205C39.2556 28.0448 38.9281 28.6196 38.5211 29.1547C38.3722 29.2934 38.2035 29.3925 38.0149 29.4619C38.5807 28.9168 38.7792 28.1637 38.9678 27.4997C39.3449 26.8952 39.6228 26.2313 39.8511 25.5574Z" fill="black"/>
<path d="M4.56578 29.3517C4.99258 29.6787 5.01243 29.867 4.9231 30.0355C4.83377 30.2039 4.65511 30.6301 5.04221 30.8183C5.35983 30.9769 5.66752 30.3625 5.75685 29.976C5.3896 29.5102 5.04221 29.0346 4.71466 28.5391C4.63526 28.5688 4.56578 28.6084 4.50623 28.6778C4.44667 28.7472 4.4169 28.8165 4.39705 28.8958C4.3772 28.9751 4.38712 29.0643 4.4169 29.1436C4.4566 29.2328 4.50623 29.3021 4.56578 29.3517Z" fill="#005844"/>
<path d="M7.99948 33.0283C8.03918 33.1373 8.08881 33.1967 8.10866 33.1967C8.15829 33.0283 8.15829 32.8499 8.10866 32.6814C8.05903 32.513 7.95977 32.3643 7.83074 32.2454C7.76126 32.1859 7.67193 32.1562 7.57268 32.1364C7.48335 32.1265 7.38409 32.1364 7.30469 32.176C7.73149 32.3445 7.93 32.84 7.99948 33.0283Z" fill="#005844"/>
<path d="M17.845 40.6691C17.7755 39.8565 16.9219 40.6493 16.9219 40.6493C17.2494 40.9565 17.5869 41.234 17.9541 41.5015C18.0335 41.4619 18.0236 41.4619 18.103 41.4223L18.0435 41.3133C17.9343 41.1151 17.8648 40.897 17.845 40.6691Z" fill="#005844"/>
<path d="M14.8568 41.2048C14.5293 41.2048 14.2216 40.967 14.0032 40.7787C14.0032 40.7787 13.8146 40.5904 13.6657 40.7093C13.5566 40.7985 13.626 41.0462 13.7054 41.185C13.8047 41.3237 13.8742 41.4724 13.9337 41.621C14.0528 41.7994 14.3407 42.0571 14.5491 42.0174C14.9164 41.958 15.1546 41.7697 15.0553 41.1354C14.9958 41.185 14.9263 41.2048 14.8568 41.2048Z" fill="#005844"/>
<path d="M3.79099 28.0444C3.43367 27.0535 2.93739 26.6174 2.38156 26.1219L2.30216 26.0526C2.29223 26.0426 2.29223 26.0327 2.28231 26.0228C2.28231 26.0129 2.28231 26.003 2.29223 25.9931C2.30216 25.9832 2.31208 25.9832 2.32201 25.9733C2.33194 25.9733 2.34186 25.9733 2.35179 25.9832L2.43119 26.0526C2.89769 26.4192 3.28479 26.8652 3.58256 27.3706C3.17561 26.2706 2.6297 25.2201 1.96469 24.2589C1.95476 24.2489 1.95476 24.239 1.95476 24.2291C1.95476 24.2192 1.96469 24.2093 1.97461 24.1994C1.98454 24.1895 1.99447 24.1895 2.00439 24.1895C2.01432 24.1895 2.02424 24.1994 2.03417 24.2093C2.80836 25.3985 3.43367 26.439 3.89025 28.0742C4.26742 28.6192 3.9498 27.2913 3.9498 27.2913V27.2814C3.4039 26.2904 2.95725 25.2498 2.59993 24.1697L2.59 24.1598C2.39149 23.6048 1.64707 22.6039 1.1905 23.2183C0.882803 23.6246 0.872878 23.9417 1.55774 24.7246C1.60737 24.7742 1.63715 24.8435 1.657 24.903C1.67685 24.9724 1.67685 25.0417 1.66692 25.1111C1.657 25.1805 1.62722 25.2399 1.58752 25.2994C1.54782 25.3589 1.48826 25.3985 1.42871 25.4282C0.714069 25.7453 0.882803 26.1715 1.1905 26.3895C1.39893 26.5381 2.24261 27.1129 2.2029 27.5787C2.1632 28.0544 1.61729 28.1138 1.63715 28.7084C1.64707 29.085 2.02424 29.9868 2.93739 29.9967C3.65203 29.9967 4.12846 29.085 3.79099 28.0444Z" fill="#005844"/>
<path d="M6.34165 30.6804C6.14314 30.6506 5.74611 30.6903 5.61708 30.829C5.41857 31.0371 4.92229 31.3146 4.67415 30.7596C4.38631 30.1254 4.12825 29.7885 3.50294 30.1452C2.87763 30.502 3.19524 31.1659 3.50294 31.4434C3.81063 31.7407 4.21758 32.0677 3.6816 32.375C3.24487 32.6227 2.95703 32.6524 2.95703 32.9894C2.95703 33.2371 3.06621 33.5939 4.07862 33.5939C4.47564 33.5939 4.95207 33.6533 4.93222 34.0398C4.90244 34.5353 4.20765 34.4659 4.20765 34.7731C4.19773 35.1002 4.54512 35.4173 5.38879 35.4768C5.69649 35.4966 6.00418 35.4074 6.26224 35.229C6.24239 35.1695 6.23247 35.1101 6.23247 35.0407C6.24239 34.7831 6.4409 34.6047 6.65927 34.4362C6.73867 34.3768 6.7486 34.3371 6.7486 34.3371C6.7486 34.3173 6.72874 34.2182 6.4012 33.9506C6.26224 33.8416 6.15306 33.7128 6.07366 33.5542C5.8553 33.3659 5.63693 33.1578 5.41857 32.9299C5.27961 32.9497 5.14065 32.9596 5.0017 32.9596C4.63445 32.9497 4.25728 32.9101 3.89996 32.8308C3.89003 32.8308 3.88011 32.8209 3.87018 32.811C3.86026 32.8011 3.86026 32.7912 3.86026 32.7813C3.86026 32.7713 3.87018 32.7614 3.88011 32.7515C3.89003 32.7416 3.89996 32.7416 3.90989 32.7416C4.37639 32.8506 4.86274 32.8903 5.33917 32.8506C4.71386 32.1768 4.15802 31.4533 3.6816 30.6704C3.67167 30.6605 3.67167 30.6506 3.67167 30.6407C3.67167 30.6308 3.6816 30.6209 3.69152 30.611C3.70145 30.6011 3.71137 30.6011 3.7213 30.6011C3.73123 30.6011 3.74115 30.611 3.75108 30.6209C4.2275 31.384 4.77341 32.0975 5.37887 32.7614C5.34909 32.2659 5.35902 31.7605 5.4285 31.265C5.4285 31.2551 5.4285 31.2551 5.43842 31.2452C5.43842 31.2353 5.44835 31.2353 5.44835 31.2353C5.44835 31.2353 5.45827 31.2254 5.4682 31.2254C5.47812 31.2254 5.47812 31.2254 5.48805 31.2254C5.49797 31.2254 5.49798 31.2254 5.5079 31.2353C5.51783 31.2353 5.51783 31.2452 5.51783 31.2452C5.51783 31.2452 5.52775 31.2551 5.52775 31.265C5.52775 31.275 5.52775 31.275 5.52775 31.2849C5.45827 31.8101 5.44835 32.3452 5.48805 32.8704C5.65678 33.0488 5.83544 33.2173 6.00418 33.3759C5.94463 33.1677 5.94463 32.9497 6.03396 32.7515C6.11336 32.5533 6.26224 32.3849 6.45083 32.2858C6.62949 32.1768 6.828 32.1173 7.02651 32.1074C7.07614 32.1074 7.11584 32.1074 7.16547 32.1173C7.16547 31.8894 7.14562 31.6515 7.08607 31.4335C6.80815 31.1858 6.56994 30.938 6.34165 30.6804Z" fill="#005844"/>
<path d="M7.83081 33.0399C7.64222 32.5841 7.19557 31.9795 6.50078 32.4354C6.0045 32.7624 5.98465 33.4066 6.50078 33.8228C6.93751 34.1696 7.05661 34.3282 6.70922 34.5958C6.36182 34.8633 6.24272 35.121 6.66952 35.4877C7.09632 35.8543 7.37423 36.112 7.19557 36.3696C6.88788 36.7958 6.04421 36.994 6.55041 37.4796C6.74892 37.6877 6.97721 37.866 7.22535 38.0048C7.22535 37.975 7.22535 37.9552 7.22535 37.9156C7.21542 37.8165 7.22535 37.7075 7.25513 37.6183C7.2849 37.5192 7.33453 37.43 7.40401 37.3507C7.45364 37.3012 7.51319 37.2615 7.57274 37.2318C7.64222 37.2021 7.7117 37.1922 7.78118 37.1922C7.89036 37.1922 7.99954 37.2219 8.0988 37.2814C8.21791 37.3606 8.35686 37.4102 8.50575 37.4102C8.61493 37.4102 8.71418 37.3805 8.80351 37.3309C8.88292 37.2814 8.93255 37.2021 8.96232 37.1129C8.57523 37.0336 8.19805 36.9048 7.85066 36.7165C7.84073 36.7165 7.84073 36.7066 7.83081 36.7066C7.83081 36.7066 7.82088 36.6967 7.82088 36.6868C7.82088 36.6768 7.82088 36.6768 7.82088 36.6669C7.82088 36.657 7.82088 36.657 7.82088 36.6471C7.82088 36.6372 7.83081 36.6372 7.83081 36.6372C7.83081 36.6372 7.84073 36.6273 7.85066 36.6273C7.86058 36.6273 7.86059 36.6273 7.87051 36.6273C7.88044 36.6273 7.88044 36.6273 7.89036 36.6372C8.22783 36.8156 8.59508 36.9444 8.96232 37.0237C8.97225 37.0237 8.97225 37.0237 8.98217 37.0336V37.0237C9.00202 36.8949 9.0318 36.7561 9.08143 36.6372C9.08143 36.6372 9.0715 36.6372 9.0715 36.6273C8.88292 36.1714 8.65463 35.7255 8.39657 35.2994C8.14843 35.2003 7.89036 35.1309 7.6323 35.1012C7.40401 35.0615 7.14594 35.012 6.89781 34.9525C6.88788 34.9525 6.88788 34.9525 6.87795 34.9426C6.86803 34.9426 6.86803 34.9327 6.86803 34.9327C6.86803 34.9228 6.8581 34.9228 6.8581 34.9129C6.8581 34.903 6.8581 34.903 6.8581 34.8931C6.8581 34.8832 6.8581 34.8832 6.86803 34.8732L6.87795 34.8633C6.88788 34.8633 6.88788 34.8633 6.89781 34.8534C6.90773 34.8534 6.90773 34.8534 6.91766 34.8534C7.1658 34.9129 7.42386 34.9624 7.65215 35.0021C7.88044 35.0318 8.0988 35.0814 8.31716 35.1507C7.84073 34.4075 7.31468 33.6841 6.74892 33.0102C6.74892 33.0102 6.739 33.0003 6.739 32.9904C6.739 32.9804 6.739 32.9805 6.739 32.9705C6.739 32.9606 6.739 32.9606 6.74892 32.9507C6.74892 32.9408 6.75885 32.9408 6.75885 32.9408C6.75885 32.9408 6.76877 32.9309 6.7787 32.9309C6.78862 32.9309 6.78862 32.9309 6.79855 32.9309C6.80848 32.9309 6.80848 32.9309 6.8184 32.9408C6.82833 32.9408 6.82833 32.9507 6.82833 32.9507C7.40401 33.6345 7.93006 34.348 8.40649 35.1012C8.41642 34.4372 8.49582 33.8327 8.605 33.6246C8.61493 33.6147 8.62485 33.6048 8.63478 33.6048C8.6447 33.6048 8.65463 33.6048 8.66456 33.6048C8.67448 33.6147 8.68441 33.6246 8.68441 33.6345C8.68441 33.6444 8.68441 33.6543 8.68441 33.6642C8.59508 33.8426 8.49582 34.4471 8.49582 35.2399C8.74396 35.6462 8.9524 36.0723 9.14098 36.5084C9.22039 36.3796 9.31964 36.2705 9.44867 36.1913C9.51815 36.1417 9.59756 36.112 9.67696 36.0922V35.3786C9.67696 35.3687 9.67696 35.3588 9.68689 35.3489C9.69681 35.339 9.70674 35.339 9.71667 35.339C9.72659 35.339 9.73652 35.339 9.74644 35.3489C9.75637 35.3588 9.75637 35.3687 9.75637 35.3786V36.0823C9.77622 36.0823 9.78614 36.0823 9.806 36.0823C10.3023 36.0823 10.9177 36.5777 11.2849 37.0435C11.3842 37.0237 11.4735 37.0138 11.5727 37.0138C11.8308 37.0138 11.8904 36.9841 11.9301 36.875C11.9797 36.7264 11.9301 36.6669 11.3742 36.4093C11.3048 36.3796 11.2254 36.3399 11.1459 36.3003C11.0169 36.2507 10.9077 36.1714 10.8184 36.0723C10.7291 35.9732 10.6596 35.8543 10.6298 35.7156C10.61 35.5868 10.61 35.448 10.6397 35.3192C10.6695 35.1904 10.7291 35.0714 10.7986 34.9624C10.6397 34.6057 10.3916 34.3381 9.85562 34.4372C9.60748 34.4868 9.27994 34.5759 9.17076 34.0408C9.06158 33.4958 8.89284 33.0003 8.49582 33.2381C8.21791 33.4561 8.00947 33.4958 7.83081 33.0399Z" fill="#005844"/>
<path d="M16.0294 37.9242C16.1088 37.4882 15.9798 36.3684 15.0766 36.7053C14.3619 36.9729 14.2527 36.9233 14.2031 36.4575C14.1535 35.9918 13.6076 35.7539 13.151 35.7639C12.7044 35.7738 12.7143 35.8828 12.5455 35.6152C12.3768 35.3476 11.3346 34.8125 11.3346 34.8125C11.2155 34.8323 11.1063 34.8918 11.017 34.981C10.7689 35.2981 10.5704 35.8729 11.156 36.1503C11.7515 36.4278 12.2081 36.4377 12.089 36.8936C11.9401 37.4485 11.3148 37.0026 11.1659 37.4188C11.0766 37.6765 11.4537 38.3801 12.1088 38.1422C12.6845 37.9341 13.4785 37.8846 13.5182 38.3404C13.5778 39.0639 12.1485 39.0044 12.8731 39.8467C13.2205 40.2431 14.0145 40.1639 14.5704 40.0846C14.8284 40.0251 15.0567 39.8765 15.2056 39.6584C15.1659 39.4603 15.1163 39.2621 15.0468 39.0738C14.5009 38.9053 14.1634 38.8855 13.8756 39.0143C13.8656 39.0143 13.8557 39.0143 13.8458 39.0143C13.8359 39.0143 13.8259 39.0044 13.816 38.9945C13.816 38.9846 13.8061 38.9747 13.816 38.9548C13.816 38.9449 13.8259 38.935 13.8359 38.9251C14.1833 38.7765 14.5505 38.826 14.9972 38.9548C14.6795 38.1819 14.1237 37.726 13.548 37.3197C13.2006 37.3891 12.8532 37.4287 12.4959 37.4386C12.4364 37.4386 12.3768 37.4386 12.3173 37.4287C12.3073 37.4287 12.3073 37.4287 12.2974 37.4287C12.2875 37.4287 12.2875 37.4188 12.2875 37.4188C12.2875 37.4188 12.2776 37.4089 12.2776 37.399C12.2776 37.3891 12.2776 37.3891 12.2776 37.3792C12.2776 37.3693 12.2875 37.3593 12.2974 37.3494C12.3073 37.3395 12.3173 37.3395 12.3272 37.3395C12.7044 37.3494 13.0716 37.3197 13.4388 37.2503L13.3197 37.1612C12.6845 36.7251 12.0294 36.2693 11.6919 35.4269C11.6919 35.417 11.6919 35.4071 11.6919 35.3873C11.6919 35.3774 11.7019 35.3675 11.7217 35.3675C11.7316 35.3675 11.7416 35.3675 11.7614 35.3675C11.7714 35.3675 11.7813 35.3774 11.7813 35.3972C12.1088 36.2098 12.7242 36.6359 13.3793 37.0918C13.4388 37.1314 13.4984 37.1711 13.558 37.2107C13.558 36.844 13.4785 36.4774 13.3396 36.1404C13.3396 36.1305 13.3396 36.1305 13.3297 36.1206C13.3297 36.1107 13.3297 36.1107 13.3297 36.1008C13.3297 36.0909 13.3297 36.0909 13.3396 36.081L13.3495 36.0711C13.3594 36.0711 13.3594 36.0711 13.3694 36.0611C13.3793 36.0611 13.3793 36.0611 13.3892 36.0611C13.3991 36.0611 13.3991 36.0612 13.4091 36.0711L13.419 36.081C13.5778 36.4476 13.6572 36.8539 13.6473 37.2503V37.2602C14.1833 37.6368 14.6994 38.063 15.0269 38.7566C15.017 38.6476 14.9972 38.5089 14.9773 38.3702C14.9178 38.0431 14.888 37.7161 14.8781 37.3792C14.8781 37.3693 14.8781 37.3693 14.8781 37.3593C14.8781 37.3494 14.888 37.3494 14.888 37.3494L14.8979 37.3395C14.9078 37.3395 14.9078 37.3395 14.9178 37.3395C14.9277 37.3395 14.9277 37.3395 14.9376 37.3395C14.9475 37.3395 14.9475 37.3494 14.9475 37.3494L14.9575 37.3593C14.9575 37.3693 14.9575 37.3693 14.9575 37.3792C14.9674 37.7062 15.0071 38.0332 15.0567 38.3603C15.0964 38.5684 15.1163 38.7864 15.1262 39.0044C15.1957 39.1828 15.2453 39.3612 15.285 39.5395C15.3148 39.49 15.3446 39.4404 15.3644 39.381C15.4934 39.0837 15.6423 38.7566 15.7714 38.4891C15.9103 38.3206 15.9798 38.1224 16.0294 37.9242Z" fill="#005844"/>
<path d="M14.9279 40.1732C14.6003 40.2922 14.243 40.3417 13.8956 40.3318C13.4192 40.3318 13.0718 40.2228 12.8236 39.985C12.8137 39.975 12.7939 39.9552 12.7839 39.9453C12.6748 40.0543 12.5656 40.1732 12.4762 40.3021C12.4663 40.7579 12.5755 41.2039 12.7939 41.6003C12.8038 41.6102 12.8038 41.6201 12.8038 41.63C12.8038 41.6399 12.7939 41.6498 12.7839 41.6597C12.774 41.6696 12.7641 41.6696 12.7542 41.6696C12.7442 41.6696 12.7343 41.6597 12.7244 41.6498C12.506 41.2732 12.3968 40.8471 12.3968 40.421C11.9204 41.1543 11.6326 41.9868 11.5631 42.8489C11.5631 42.8588 11.5532 42.8687 11.5532 42.8786C11.5432 42.8886 11.5333 42.8886 11.5234 42.8886C11.5135 42.8886 11.5035 42.8786 11.4936 42.8687C11.4837 42.8588 11.4837 42.8489 11.4837 42.839C11.5532 41.9967 11.8311 41.1841 12.2777 40.4606C12.0494 40.6192 11.6623 40.8967 11.4341 41.0949C11.4241 41.1048 11.4142 41.1048 11.4043 41.1048C11.3944 41.1048 11.3844 41.0949 11.3745 41.085C11.3646 41.075 11.3646 41.0651 11.3646 41.0552C11.3646 41.0453 11.3646 41.0354 11.3745 41.0255C11.7219 40.7282 12.3869 40.2723 12.4266 40.2426C12.5259 40.1138 12.6351 39.985 12.7542 39.866C12.6946 39.8066 12.645 39.7273 12.6152 39.648C12.5854 39.5687 12.5656 39.4795 12.5755 39.3904C12.6053 39.1129 12.8435 38.9444 13.0619 38.8057C13.1313 38.7561 13.1909 38.7165 13.2504 38.6768C13.181 38.5976 13.1313 38.5381 13.0916 38.4985C12.9924 38.4093 12.8733 38.3399 12.7542 38.2904C12.6251 38.2507 12.4961 38.2309 12.3571 38.2408C12.3274 38.2507 12.3075 38.2507 12.2777 38.2606C12.1884 38.2904 12.0891 38.3201 11.9899 38.3201C11.702 38.4687 11.8112 38.7759 12.0197 38.8949C12.0792 38.9246 12.1388 38.9741 12.1685 39.0336C12.2083 39.0931 12.2281 39.1624 12.2281 39.2318C12.2281 39.3012 12.2083 39.3705 12.1785 39.43C12.1487 39.4895 12.0891 39.539 12.0296 39.5786C11.6822 39.8066 11.2852 39.9453 10.8683 39.985C10.3025 40.0841 10.0643 40.312 10.0445 40.5895C10.0048 41.2039 10.7591 40.9759 10.9676 41.2039C11.0271 41.2732 11.0668 41.3426 11.0966 41.4318C11.1264 41.5111 11.1363 41.6003 11.1264 41.6895C11.1164 41.7786 11.0966 41.8579 11.047 41.9372C11.0073 42.0165 10.9477 42.0759 10.8782 42.1354C10.7988 42.2048 10.7293 42.294 10.6896 42.403C10.6499 42.5021 10.6202 42.6111 10.6301 42.7201C10.6301 42.8291 10.6599 42.9381 10.7095 43.0372C10.7591 43.1363 10.8286 43.2255 10.908 43.2949C11.2752 43.5922 11.9601 43.4237 12.0693 42.9183C12.1685 42.4228 12.0296 42.1156 12.3968 41.9868C12.7641 41.8579 13.1611 42.4822 13.6673 42.1552C14.1735 41.8282 13.4986 41.3327 13.4787 40.8967C13.4589 40.4606 13.8757 40.3615 14.1338 40.5895C14.3919 40.8174 14.779 41.1841 15.0767 40.9264C15.2752 40.748 15.2256 40.4111 14.9279 40.1732Z" fill="#005844"/>
<path d="M20.9218 41.5116C21.2493 41.1152 21.2196 40.4017 20.4454 40.0251C19.7506 39.6882 21.0707 39.2125 20.6042 38.717C20.1377 38.2116 19.8598 38.4594 19.0459 38.4098C18.232 38.3603 18.7977 37.726 18.3213 37.1512C18.093 36.8738 17.7456 36.8936 17.3684 37.0819C16.9416 37.3494 16.1277 38.281 15.7109 39.1332C15.9392 39.0837 16.1575 39.044 16.356 39.0044C16.9416 38.7269 17.4776 38.3503 17.9441 37.9044C17.954 37.8945 17.964 37.8945 17.9739 37.8846C17.9838 37.8846 17.9937 37.8846 18.0037 37.8945C18.0136 37.9044 18.0136 37.9143 18.0136 37.9242C18.0136 37.9341 18.0136 37.944 18.0037 37.954C17.6067 38.3503 17.1501 38.6774 16.6538 38.9449C17.3287 38.8359 17.825 38.8359 18.3014 39.0242C18.6885 39.1332 19.7506 39.2819 20.1674 39.1035C20.1774 39.1035 20.1873 39.0936 20.2071 39.1035C20.2171 39.1035 20.227 39.1134 20.2369 39.1233C20.2369 39.1332 20.2369 39.1431 20.2369 39.163C20.2369 39.1729 20.227 39.1828 20.2171 39.1927C19.8598 39.3413 19.1153 39.272 18.6389 39.1927C19.1054 39.4801 19.5918 39.9855 20.2369 40.7882C20.2469 40.7981 20.2469 40.808 20.2469 40.8179C20.2469 40.8278 20.2369 40.8377 20.227 40.8476C20.2171 40.8576 20.2071 40.8576 20.1972 40.8576C20.1873 40.8576 20.1774 40.8476 20.1674 40.8377C19.5322 40.035 19.0558 39.5494 18.5893 39.2621C18.9466 39.6287 18.9367 39.9161 18.9168 40.2828C18.9168 40.2927 18.9069 40.3026 18.9069 40.3125C18.897 40.3224 18.887 40.3224 18.8771 40.3224C18.8672 40.3224 18.8573 40.3125 18.8473 40.3026C18.8374 40.2927 18.8374 40.2828 18.8374 40.2729C18.8573 39.8368 18.8672 39.5594 18.2816 39.1035C17.7853 38.9053 17.2692 38.9251 16.5347 39.054C16.7729 39.1729 16.9615 39.3512 17.1004 39.5693C17.1004 39.5792 17.1104 39.5792 17.1104 39.5891C17.1104 39.599 17.1104 39.599 17.1104 39.6089C17.1104 39.6188 17.1104 39.6188 17.1004 39.6287L17.0905 39.6386C17.0806 39.6386 17.0806 39.6485 17.0707 39.6485C17.0607 39.6485 17.0607 39.6485 17.0508 39.6485C17.0409 39.6485 17.0409 39.6485 17.031 39.6386L17.021 39.6287C16.8722 39.3909 16.6439 39.2026 16.3759 39.0936C16.1575 39.1332 15.9292 39.1828 15.6811 39.2422C15.5719 39.4702 15.5024 39.708 15.4727 39.9558C15.4826 40.0648 15.5223 40.1738 15.5719 40.2729C15.6315 40.372 15.7009 40.4612 15.7903 40.5206C16.7034 41.2143 16.7828 40.2431 17.557 40.154C18.1823 40.0846 17.9243 40.7089 18.222 41.2341C18.5198 41.7494 18.8771 41.3332 19.1054 41.1648C19.3337 40.9963 19.4727 40.8774 19.7109 41.3531C19.7704 41.4621 19.8498 41.5513 19.9491 41.6305C20.0483 41.6999 20.1674 41.7494 20.2866 41.7594C20.4057 41.7792 20.5347 41.7594 20.6538 41.7197C20.7332 41.6702 20.8424 41.6008 20.9218 41.5116Z" fill="#005844"/>
<path d="M10.917 39.8179C11.4431 39.7287 11.8996 39.5602 11.8996 39.2629C11.8996 39.0647 11.5622 38.9557 11.6515 38.5692C11.6515 38.4899 11.6416 38.4206 11.6118 38.3413C11.6019 38.3413 11.5919 38.3512 11.582 38.3413C11.2942 38.2818 10.9964 38.2422 10.6986 38.2323C10.3512 38.48 10.0535 38.7872 9.79541 39.1242C9.79541 39.1341 9.78549 39.1341 9.77556 39.1341C9.76564 39.1341 9.76564 39.1341 9.75571 39.1341C9.74579 39.1341 9.73586 39.1341 9.72594 39.1242L9.71601 39.1143C9.71601 39.1143 9.70608 39.1043 9.70608 39.0944C9.70608 39.0845 9.70608 39.0845 9.70608 39.0746C9.70608 39.0647 9.70608 39.0647 9.71601 39.0548C9.95422 38.7377 10.2321 38.4602 10.5398 38.2125C10.0336 38.2323 9.53735 38.3314 9.06092 38.5197C8.87234 38.8962 8.6242 39.2431 8.33636 39.5503C8.33636 39.5503 8.32643 39.5602 8.31651 39.5602C8.30658 39.5602 8.30658 39.5602 8.29665 39.5602C8.28673 39.5602 8.28673 39.5602 8.2768 39.5503C8.26688 39.5503 8.26688 39.5404 8.26688 39.5404C8.26688 39.5404 8.25695 39.5305 8.25695 39.5206C8.25695 39.5107 8.25695 39.5107 8.25695 39.5007C8.25695 39.4908 8.25695 39.4908 8.26688 39.4809C8.26688 39.471 8.2768 39.471 8.2768 39.471C8.53487 39.1935 8.76316 38.8863 8.94182 38.5494C8.47531 38.7278 7.97904 38.8269 7.48276 38.8368C7.3438 38.8368 7.21477 38.8269 7.07581 38.817C7.06589 38.817 7.05596 38.807 7.04603 38.7971C7.03611 38.7872 7.03611 38.7773 7.03611 38.7674C7.03611 38.7575 7.04603 38.7476 7.05596 38.7377C7.06588 38.7278 7.07581 38.7278 7.08574 38.7278C7.65149 38.7872 8.22718 38.7179 8.75323 38.5197C8.59442 38.4602 8.43561 38.3809 8.29665 38.2917C8.1577 38.2125 8.00881 38.1332 7.85993 38.0638C7.85 38.0638 7.85 38.0539 7.85 38.0539L7.84008 38.044C7.84008 38.0341 7.84008 38.0341 7.84008 38.0242C7.84008 38.0143 7.84008 38.0143 7.84008 38.0043C7.84008 37.9944 7.85 37.9845 7.85993 37.9845C7.86985 37.9845 7.87978 37.9845 7.88971 37.9845C8.04852 38.0539 8.1974 38.1332 8.33636 38.2125C8.51502 38.3413 8.71353 38.4206 8.93189 38.4602L8.99144 38.4404C9.4778 38.2521 9.99393 38.1431 10.52 38.1233C10.1825 37.9152 9.56713 37.5287 9.56713 37.5287C9.5572 37.5188 9.54727 37.5088 9.54727 37.4989C9.54727 37.489 9.54728 37.4791 9.5572 37.4692C9.56713 37.4593 9.57705 37.4494 9.58698 37.4494C9.5969 37.4494 9.60683 37.4494 9.61675 37.4593C9.62668 37.4692 10.4307 37.9845 10.6986 38.1332C10.9567 38.1431 11.2048 38.1728 11.453 38.2125C11.3438 38.153 11.2445 38.0539 11.1751 37.9548C11.1056 37.8656 11.056 37.7566 11.0262 37.6476C11.0063 37.5386 11.0063 37.4197 11.0262 37.3007C11.0659 37.2413 11.1056 37.1818 11.1552 37.1323C10.7483 36.6269 9.9443 36.0818 9.57705 36.3395C8.99144 36.7458 9.28921 37.2314 8.90211 37.4395C8.76316 37.5188 8.61427 37.5584 8.45546 37.5485C8.29665 37.5386 8.14777 37.489 8.01874 37.3998C7.94926 37.3602 7.86986 37.3404 7.79045 37.3404C7.71105 37.3404 7.63164 37.3701 7.57209 37.4098C7.50261 37.4494 7.45298 37.5188 7.42321 37.5881C7.39343 37.6575 7.37358 37.7368 7.3835 37.8161C7.39343 38.2818 7.47283 38.2818 7.07581 38.3215C6.70856 38.3611 5.99392 38.4107 5.88474 38.9854C5.77556 39.5602 6.35124 39.7386 6.54976 39.7485C7.02618 39.7782 7.48276 39.4016 7.64157 39.8179C7.80038 40.2242 7.8103 40.5413 8.10807 40.5314C8.73338 40.5116 8.80286 39.8179 9.26936 39.7881C9.4778 39.7782 9.80534 40.0161 9.97407 40.2242C10.113 40.0458 10.4009 39.907 10.917 39.8179Z" fill="#005844"/>
<path d="M24.139 42.3353C23.1366 41.9983 21.8462 41.4434 21.8462 41.4434C21.7371 41.5623 21.5981 41.6515 21.4492 41.6911C22.1043 42.0082 23.3748 42.583 23.3748 42.583C23.5038 42.3749 23.9604 42.3055 24.139 42.3353Z" fill="#005844"/>
<path d="M23.0275 43.1266C21.8464 43.0076 21.1814 43.6221 21.767 43.6914C22.9283 43.8401 23.6926 43.186 23.0275 43.1266Z" fill="#005844"/>
<path d="M24.5543 42.5435C24.0183 42.3453 23.3732 42.712 23.7106 42.8903C24.1672 43.1282 25.0903 42.7516 24.5543 42.5435Z" fill="#005844"/>
<path d="M22.6185 42.9198C22.1917 42.7315 21.348 42.3649 20.5639 41.9883C20.2761 42.1369 20.0081 42.3054 19.75 42.4937C20.4249 42.8504 21.08 43.227 21.3182 43.3658C21.487 43.1973 21.6954 43.0685 21.9138 42.9892C22.1421 42.9099 22.3902 42.8901 22.6185 42.9198Z" fill="#005844"/>
<path d="M20.1791 0C16.5265 0 12.9533 1.08018 9.91611 3.11171C6.87889 5.14324 4.50668 8.01712 3.10718 11.3865C1.70767 14.7559 1.34043 18.4622 2.05507 22.0496C2.76971 25.627 4.52653 28.9171 7.10718 31.4937C9.68783 34.0703 12.9831 35.8342 16.5662 36.5378C20.1494 37.2514 23.8615 36.8847 27.2362 35.4874C30.6109 34.0901 33.4992 31.7216 35.5241 28.6892C37.5588 25.6568 38.6407 22.0892 38.6407 18.4423C38.6407 16.0243 38.1643 13.6162 37.2313 11.3865C36.2983 9.14685 34.9385 7.11532 33.2313 5.4009C31.5141 3.68649 29.4794 2.32883 27.2362 1.3973C25.003 0.475676 22.601 0 20.1791 0Z" fill="#AA8A00"/>
<path d="M37.3373 18.4804C37.3587 9.0229 29.7016 1.33875 20.2346 1.31738C10.7677 1.29601 3.07582 8.94551 3.0544 18.403C3.03299 27.8605 10.6901 35.5447 20.1571 35.566C29.624 35.5874 37.3159 27.9379 37.3373 18.4804Z" fill="#00B5E2"/>
<path d="M20.2008 32.9495C28.2206 32.9495 34.7219 26.4585 34.7219 18.4513C34.7219 10.4442 28.2206 3.95312 20.2008 3.95312C12.181 3.95312 5.67969 10.4442 5.67969 18.4513C5.67969 26.4585 12.181 32.9495 20.2008 32.9495Z" fill="#EF3340"/>
<path d="M32.0886 18.519C32.1309 11.9623 26.8415 6.61274 20.2744 6.57054C13.7072 6.52834 8.34927 11.8094 8.307 18.3662C8.26473 24.923 13.5542 30.2725 20.1213 30.3147C26.6884 30.3569 32.0464 25.0758 32.0886 18.519Z" fill="#509E2F"/>
<path d="M19.875 37.2317C20.1033 37.4596 20.2621 37.747 20.3217 38.074C20.6492 37.8758 21.1256 37.3506 20.9668 37.1128C20.8576 36.9245 20.2819 36.9641 19.875 37.2317Z" fill="#AA8A00"/>
<path d="M19.3279 37.5488C19.3081 37.5488 19.2882 37.5587 19.2684 37.5686C19.2485 37.5786 19.2386 37.5984 19.2287 37.6182C19.2187 37.638 19.2188 37.6578 19.2188 37.6876C19.2188 37.7074 19.2386 37.7272 19.2485 37.747C19.2684 37.7668 19.2882 37.7768 19.3081 37.7768C19.3279 37.7768 19.3577 37.7768 19.3776 37.7668C19.3974 37.7569 19.4173 37.747 19.4272 37.7272C19.4371 37.7074 19.447 37.6876 19.447 37.6677C19.447 37.638 19.4371 37.6083 19.4173 37.5885C19.3875 37.5686 19.3577 37.5488 19.3279 37.5488Z" fill="#AA8A00"/>
<path d="M19.7556 37.3199C19.7556 37.3001 19.7457 37.2803 19.7358 37.2605C19.7259 37.2407 19.706 37.2308 19.6862 37.2208C19.6663 37.2109 19.6465 37.2109 19.6167 37.2109C19.5968 37.2109 19.577 37.2308 19.5571 37.2407C19.5373 37.2605 19.5273 37.2803 19.5273 37.3001C19.5273 37.3199 19.5273 37.3497 19.5373 37.3695C19.5472 37.3893 19.5571 37.4091 19.577 37.419C19.5968 37.429 19.6167 37.4389 19.6365 37.4389C19.6564 37.4389 19.6663 37.4389 19.6762 37.429C19.6862 37.419 19.706 37.419 19.7159 37.4091C19.7259 37.3992 19.7358 37.3893 19.7358 37.3695C19.7556 37.3497 19.7556 37.3299 19.7556 37.3199Z" fill="#AA8A00"/>
<path d="M19.7147 37.5977C19.6948 37.5977 19.6749 37.6076 19.6551 37.6175C19.6352 37.6274 19.6253 37.6472 19.6154 37.667C19.6055 37.6868 19.6055 37.7067 19.6055 37.7364C19.6055 37.7562 19.6253 37.776 19.6352 37.7959C19.6551 37.8157 19.6749 37.8256 19.6948 37.8256C19.7146 37.8256 19.7444 37.8256 19.7643 37.8157C19.7841 37.8058 19.804 37.7959 19.8139 37.776C19.8238 37.7562 19.8338 37.7364 19.8338 37.7166C19.8338 37.6968 19.8338 37.6868 19.8238 37.6769C19.8139 37.667 19.8139 37.6472 19.804 37.6373C19.7941 37.6274 19.7841 37.6175 19.7643 37.6175C19.7444 37.5977 19.7246 37.5977 19.7147 37.5977Z" fill="#AA8A00"/>
<path d="M19.992 37.875C19.9721 37.875 19.9523 37.8849 19.9324 37.8948C19.9126 37.9047 19.9027 37.9245 19.8927 37.9444C19.8828 37.9642 19.8828 37.984 19.8828 38.0137C19.8828 38.0336 19.9027 38.0534 19.9126 38.0732C19.9324 38.093 19.9523 38.1029 19.9721 38.1029C19.992 38.1029 20.0218 38.1029 20.0416 38.093C20.0615 38.0831 20.0813 38.0732 20.0912 38.0534C20.1012 38.0336 20.1111 38.0137 20.1111 37.9939C20.1111 37.9642 20.1012 37.9345 20.0813 37.9146C20.0515 37.8948 20.0218 37.875 19.992 37.875Z" fill="#AA8A00"/>
<path d="M19.6053 37.9336C19.5854 37.9336 19.5656 37.9435 19.5457 37.9534C19.5259 37.9633 19.5159 37.9831 19.506 38.003C19.4961 38.0228 19.4961 38.0426 19.4961 38.0723C19.4961 38.0922 19.5159 38.112 19.5259 38.1318C19.5457 38.1516 19.5656 38.1615 19.5854 38.1615C19.6053 38.1615 19.6351 38.1615 19.6549 38.1516C19.6748 38.1417 19.6946 38.1318 19.7045 38.112C19.7145 38.0922 19.7244 38.0723 19.7244 38.0525C19.7244 38.0228 19.7145 37.9931 19.6946 37.9732C19.6648 37.9534 19.6351 37.9336 19.6053 37.9336Z" fill="#AA8A00"/>
<path d="M15.6646 41.5332C15.4164 41.771 15.2675 42.2566 15.4958 42.4053C15.7737 42.5837 16.2502 42.0683 16.2502 42.0683C16.1013 41.8503 15.9028 41.6719 15.6646 41.5332Z" fill="#AA8A00"/>
<path d="M16.1619 41.3141C16.1619 41.2943 16.152 41.2744 16.142 41.2546C16.1321 41.2348 16.1123 41.2249 16.0924 41.215C16.0726 41.2051 16.0527 41.2051 16.0229 41.2051C16.0031 41.2051 15.9832 41.2249 15.9634 41.2348C15.9435 41.2546 15.9336 41.2744 15.9336 41.2943C15.9336 41.3141 15.9336 41.3438 15.9435 41.3636C15.9534 41.3835 15.9634 41.4033 15.9832 41.4132C16.0031 41.4231 16.0229 41.433 16.0428 41.433C16.0726 41.433 16.1023 41.4231 16.1222 41.4033C16.152 41.3735 16.1619 41.3438 16.1619 41.3141Z" fill="#AA8A00"/>
<path d="M16.4217 41.1953C16.4018 41.1953 16.382 41.2052 16.3621 41.2151C16.3423 41.225 16.3324 41.2449 16.3224 41.2647C16.3125 41.2845 16.3125 41.3043 16.3125 41.3341C16.3125 41.3539 16.3324 41.3737 16.3423 41.3935C16.3621 41.4133 16.382 41.4232 16.4018 41.4232C16.4217 41.4232 16.4515 41.4232 16.4713 41.4133C16.4912 41.4034 16.511 41.3935 16.5209 41.3737C16.5309 41.3539 16.5408 41.334 16.5408 41.3142C16.5408 41.2845 16.5309 41.2548 16.511 41.235C16.4812 41.2151 16.4515 41.1953 16.4217 41.1953Z" fill="#AA8A00"/>
<path d="M16.3709 41.582C16.351 41.582 16.3312 41.5919 16.3113 41.6018C16.2915 41.6118 16.2816 41.6316 16.2716 41.6514C16.2617 41.6712 16.2617 41.691 16.2617 41.7208C16.2617 41.7406 16.2816 41.7604 16.2915 41.7802C16.3113 41.8 16.3312 41.81 16.351 41.81C16.3709 41.81 16.4007 41.81 16.4205 41.8C16.4404 41.7901 16.4602 41.7802 16.4702 41.7604C16.4801 41.7406 16.49 41.7208 16.49 41.7009C16.49 41.6811 16.49 41.6712 16.4801 41.6613C16.4702 41.6514 16.4702 41.6316 16.4602 41.6217C16.4503 41.6118 16.4404 41.6018 16.4205 41.6018C16.4007 41.582 16.3908 41.582 16.3709 41.582Z" fill="#AA8A00"/>
<path d="M8.47944 40.7891C8.21145 41.3143 8.27101 41.9386 8.44967 42.0873C8.67795 42.2756 9.38267 41.4728 9.46207 41.2449C9.20401 40.9873 8.84669 40.8188 8.47944 40.7891Z" fill="#AA8A00"/>
<path d="M8.88672 40.5408C8.88672 40.5606 8.89664 40.5804 8.90657 40.6003C8.9165 40.6201 8.93635 40.63 8.9562 40.6399C8.97605 40.6498 8.9959 40.6498 9.02568 40.6498C9.04553 40.6498 9.06538 40.63 9.08523 40.6201C9.10508 40.6003 9.11501 40.5804 9.11501 40.5606C9.11501 40.5408 9.11501 40.5111 9.10508 40.4912C9.09516 40.4714 9.08523 40.4516 9.06538 40.4417C9.04553 40.4318 9.02568 40.4219 9.00583 40.4219C8.97605 40.4219 8.94627 40.4318 8.92642 40.4516C8.89664 40.4912 8.88672 40.5111 8.88672 40.5408Z" fill="#AA8A00"/>
<path d="M9.22656 40.4529C9.22656 40.4727 9.23649 40.4925 9.24641 40.5124C9.25634 40.5322 9.27619 40.5421 9.29604 40.552C9.31589 40.5619 9.33574 40.5619 9.36552 40.5619C9.38537 40.5619 9.40522 40.5421 9.42507 40.5322C9.44492 40.5124 9.45485 40.4925 9.45485 40.4727C9.45485 40.4529 9.45485 40.4232 9.44492 40.4034C9.435 40.3835 9.42507 40.3637 9.40522 40.3538C9.38537 40.3439 9.36552 40.334 9.34567 40.334C9.31589 40.334 9.28612 40.3439 9.26626 40.3637C9.23649 40.3934 9.22656 40.4232 9.22656 40.4529Z" fill="#AA8A00"/>
<path d="M9.44121 40.6992C9.42136 40.6992 9.40151 40.7091 9.38166 40.719C9.36181 40.7289 9.35188 40.7488 9.34196 40.7686C9.33203 40.7884 9.33203 40.8082 9.33203 40.838C9.33203 40.8578 9.35188 40.8776 9.36181 40.8974C9.38166 40.9172 9.40151 40.9271 9.42136 40.9271C9.44121 40.9271 9.47099 40.9271 9.49084 40.9172C9.51069 40.9073 9.53054 40.8974 9.54047 40.8776C9.55039 40.8578 9.56032 40.838 9.56032 40.8181C9.56032 40.7884 9.55039 40.7587 9.53054 40.7389C9.50077 40.7091 9.47099 40.6992 9.44121 40.6992Z" fill="#AA8A00"/>
<path d="M9.78887 40.7207C9.76902 40.7207 9.74917 40.7306 9.72932 40.7405C9.70946 40.7504 9.69954 40.7703 9.68961 40.7901C9.67969 40.8099 9.67969 40.8297 9.67969 40.8594C9.67969 40.8793 9.69954 40.8991 9.70946 40.9189C9.72932 40.9387 9.74917 40.9486 9.76902 40.9486C9.78887 40.9486 9.81865 40.9486 9.8385 40.9387C9.85835 40.9288 9.8782 40.9189 9.88812 40.8991C9.89805 40.8793 9.90798 40.8594 9.90798 40.8396C9.90798 40.8099 9.89805 40.7802 9.8782 40.7603C9.84842 40.7405 9.81865 40.7207 9.78887 40.7207Z" fill="#AA8A00"/>
<path d="M9.79079 40.3629C9.79079 40.3431 9.78086 40.3233 9.77094 40.3035C9.76101 40.2836 9.74116 40.2737 9.72131 40.2638C9.70146 40.2539 9.68161 40.2539 9.65183 40.2539C9.63198 40.2539 9.61213 40.2737 9.59228 40.2836C9.57243 40.3035 9.5625 40.3233 9.5625 40.3431C9.5625 40.3629 9.5625 40.3926 9.57243 40.4125C9.58235 40.4323 9.59228 40.4521 9.61213 40.462C9.63198 40.4719 9.65183 40.4818 9.67168 40.4818C9.70146 40.4818 9.73123 40.4719 9.75109 40.4521C9.78086 40.4224 9.79079 40.3926 9.79079 40.3629Z" fill="#AA8A00"/>
<path d="M9.1834 39.9766C9.16355 39.9766 9.1437 39.9865 9.12385 39.9964C9.104 40.0063 9.09407 40.0261 9.08414 40.0459C9.07422 40.0658 9.07422 40.0856 9.07422 40.1153C9.07422 40.1351 9.09407 40.1549 9.10399 40.1748C9.12385 40.1946 9.1437 40.2045 9.16355 40.2045C9.1834 40.2045 9.21318 40.2045 9.23303 40.1946C9.25288 40.1847 9.27273 40.1748 9.28266 40.1549C9.29258 40.1351 9.30251 40.1153 9.30251 40.0955C9.30251 40.0658 9.29258 40.036 9.27273 40.0162C9.24295 39.9865 9.21318 39.9766 9.1834 39.9766Z" fill="#AA8A00"/>
<path d="M4.67589 36.1111C4.66596 36.3886 5.3409 36.6462 5.90666 36.6561C5.97614 36.339 5.97614 36.0021 5.90666 35.685C5.41038 35.6453 4.67589 35.8336 4.67589 36.1111Z" fill="#AA8A00"/>
<path d="M6.17559 36.6367C6.15574 36.6367 6.13589 36.6466 6.11603 36.6565C6.09618 36.6664 6.08626 36.6863 6.07633 36.7061C6.06641 36.7259 6.06641 36.7457 6.06641 36.7755C6.06641 36.7953 6.08626 36.8151 6.09618 36.8349C6.11603 36.8547 6.13589 36.8646 6.15574 36.8646C6.17559 36.8646 6.20536 36.8646 6.22522 36.8547C6.24507 36.8448 6.26492 36.8349 6.27484 36.8151C6.28477 36.7953 6.29469 36.7755 6.29469 36.7556C6.29469 36.7259 6.28477 36.6962 6.26492 36.6764C6.23514 36.6565 6.20536 36.6367 6.17559 36.6367Z" fill="#AA8A00"/>
<path d="M6.50371 36.4492C6.48386 36.4492 6.46401 36.4591 6.44416 36.469C6.42431 36.4789 6.41438 36.4988 6.40446 36.5186C6.39453 36.5384 6.39453 36.5582 6.39453 36.588C6.39453 36.6078 6.41438 36.6276 6.42431 36.6474C6.44416 36.6672 6.46401 36.6771 6.48386 36.6771C6.50371 36.6771 6.53349 36.6771 6.55334 36.6672C6.57319 36.6573 6.59304 36.6474 6.60297 36.6276C6.61289 36.6078 6.62282 36.588 6.62282 36.5681C6.62282 36.5384 6.61289 36.5087 6.59304 36.4889C6.56327 36.4591 6.53349 36.4492 6.50371 36.4492Z" fill="#AA8A00"/>
<path d="M6.82012 36.2402C6.80027 36.2402 6.78042 36.2501 6.76057 36.2601C6.74071 36.27 6.73079 36.2898 6.72086 36.3096C6.71094 36.3294 6.71094 36.3492 6.71094 36.379C6.71094 36.3988 6.73079 36.4186 6.74071 36.4384C6.76057 36.4583 6.78042 36.4682 6.80027 36.4682C6.82012 36.4682 6.8499 36.4682 6.86975 36.4583C6.8896 36.4483 6.90945 36.4384 6.91937 36.4186C6.9293 36.3988 6.93923 36.379 6.93923 36.3592C6.93923 36.3294 6.9293 36.2997 6.90945 36.2799C6.87967 36.2501 6.8499 36.2402 6.82012 36.2402Z" fill="#AA8A00"/>
<path d="M6.22637 36.1914C6.20652 36.1914 6.18667 36.2013 6.16682 36.2112C6.14696 36.2211 6.13704 36.241 6.12711 36.2608C6.11719 36.2806 6.11719 36.3004 6.11719 36.3301C6.11719 36.35 6.13704 36.3698 6.14696 36.3896C6.16682 36.4094 6.18667 36.4193 6.20652 36.4193C6.22637 36.4193 6.25615 36.4193 6.276 36.4094C6.29585 36.3995 6.3157 36.3896 6.32562 36.3698C6.33555 36.35 6.34548 36.3301 6.34548 36.3103C6.34548 36.2806 6.33555 36.2509 6.3157 36.231C6.28592 36.2013 6.25615 36.1914 6.22637 36.1914Z" fill="#AA8A00"/>
<path d="M6.55449 35.9531C6.53464 35.9531 6.51479 35.963 6.49494 35.9729C6.47509 35.9829 6.46516 36.0027 6.45524 36.0225C6.44531 36.0423 6.44531 36.0621 6.44531 36.0919C6.44531 36.1117 6.46516 36.1315 6.47509 36.1513C6.49494 36.1711 6.51479 36.1811 6.53464 36.1811C6.55449 36.1811 6.58427 36.1811 6.60412 36.1711C6.62397 36.1612 6.64382 36.1513 6.65375 36.1315C6.66367 36.1117 6.6736 36.0919 6.6736 36.072C6.6736 36.0423 6.66367 36.0126 6.64382 35.9928C6.61405 35.9729 6.58427 35.9531 6.55449 35.9531Z" fill="#AA8A00"/>
<path d="M6.25371 35.6758C6.23386 35.6758 6.21401 35.6857 6.19416 35.6956C6.17431 35.7055 6.16438 35.7253 6.15446 35.7452C6.14453 35.765 6.14453 35.7848 6.14453 35.8145C6.14453 35.8343 6.16438 35.8542 6.17431 35.874C6.19416 35.8938 6.21401 35.9037 6.23386 35.9037C6.25371 35.9037 6.28349 35.9037 6.30334 35.8938C6.32319 35.8839 6.34304 35.874 6.35297 35.8542C6.36289 35.8343 6.37282 35.8145 6.37282 35.7947C6.37282 35.765 6.36289 35.7352 6.34304 35.7154C6.31327 35.6956 6.28349 35.6758 6.25371 35.6758Z" fill="#AA8A00"/>
<path d="M1.40118 26.9259C1.01408 26.5989 0.289515 26.6088 0.190259 26.7574C0.0810779 26.9358 0.4781 27.4016 0.855272 27.679C1.08356 27.4511 1.26222 27.2034 1.40118 26.9259Z" fill="#AA8A00"/>
<path d="M1.04277 27.7891C1.013 27.7891 0.983222 27.799 0.96337 27.8188C0.943519 27.8386 0.933594 27.8683 0.933594 27.8981C0.933594 27.9278 0.943519 27.9575 0.96337 27.9774C0.983222 27.9972 1.013 28.0071 1.04277 28.0071C1.07255 28.0071 1.10233 27.9972 1.12218 27.9774C1.14203 27.9575 1.15196 27.9278 1.15196 27.8981C1.15196 27.8683 1.14203 27.8386 1.12218 27.8188C1.10233 27.8089 1.07255 27.7891 1.04277 27.7891Z" fill="#AA8A00"/>
<path d="M1.39824 27.7891C1.36847 27.7891 1.33869 27.799 1.31884 27.8188C1.29899 27.8386 1.28906 27.8683 1.28906 27.8981C1.28906 27.9278 1.29899 27.9575 1.31884 27.9774C1.33869 27.9972 1.36847 28.0071 1.39824 28.0071C1.42802 28.0071 1.4578 27.9972 1.47765 27.9774C1.4975 27.9575 1.50742 27.9278 1.50742 27.8981C1.50742 27.8683 1.4975 27.8386 1.47765 27.8188C1.4578 27.8089 1.42802 27.7891 1.39824 27.7891Z" fill="#AA8A00"/>
<path d="M1.3709 27.6301C1.40068 27.6301 1.43045 27.6202 1.4503 27.6004C1.47016 27.5806 1.48008 27.5508 1.48008 27.5211C1.48008 27.4914 1.47016 27.4617 1.4503 27.4418C1.43045 27.422 1.40068 27.4121 1.3709 27.4121C1.34112 27.4121 1.31135 27.422 1.2915 27.4418C1.27164 27.4617 1.26172 27.4914 1.26172 27.5211C1.26172 27.5409 1.26172 27.5508 1.27164 27.5608C1.28157 27.5707 1.28157 27.5905 1.2915 27.6004C1.30142 27.6103 1.31135 27.6202 1.3312 27.6202C1.34112 27.6301 1.36097 27.6301 1.3709 27.6301Z" fill="#AA8A00"/>
<path d="M1.77715 27.4121C1.74737 27.4121 1.7176 27.422 1.69775 27.4418C1.67789 27.4617 1.66797 27.4914 1.66797 27.5211C1.66797 27.5508 1.67789 27.5806 1.69775 27.6004C1.7176 27.6202 1.74737 27.6301 1.77715 27.6301C1.80693 27.6301 1.8367 27.6202 1.85655 27.6004C1.87641 27.5806 1.88633 27.5508 1.88633 27.5211C1.88633 27.4914 1.87641 27.4617 1.85655 27.4418C1.8367 27.4319 1.80693 27.4121 1.77715 27.4121Z" fill="#AA8A00"/>
<path d="M1.77696 27.1051C1.77696 27.0853 1.77696 27.0754 1.76703 27.0655C1.7571 27.0556 1.75711 27.0357 1.74718 27.0258C1.73725 27.0159 1.72733 27.006 1.70748 27.006C1.69755 26.9961 1.6777 26.9961 1.66777 26.9961C1.638 26.9961 1.60822 27.006 1.58837 27.0258C1.56852 27.0456 1.55859 27.0754 1.55859 27.1051C1.55859 27.1348 1.56852 27.1646 1.58837 27.1844C1.60822 27.2042 1.638 27.2141 1.66777 27.2141C1.69755 27.2141 1.72733 27.2042 1.74718 27.1844C1.76703 27.1646 1.77696 27.1348 1.77696 27.1051Z" fill="#AA8A00"/>
<path d="M34.7999 13.0821C35.1771 13.0821 35.4749 12.7749 35.4749 12.4082C35.4749 12.0317 35.1672 11.7344 34.7999 11.7344C34.4228 11.7344 34.125 12.0416 34.125 12.4082C34.125 12.7848 34.4327 13.0821 34.7999 13.0821Z" fill="#AA8A00"/>
<path d="M26.5035 4.48976C26.6226 4.44021 26.7318 4.35102 26.8112 4.24201C26.8906 4.133 26.9303 4.00417 26.9303 3.86543C26.9303 3.72669 26.8906 3.59787 26.8112 3.48886C26.7318 3.37985 26.6325 3.29066 26.5035 3.24111C26.3844 3.19156 26.2454 3.17174 26.1164 3.20147C25.9873 3.2312 25.8682 3.29066 25.769 3.38976C25.6697 3.48886 25.6102 3.60777 25.5804 3.7366C25.5506 3.86543 25.5705 4.00417 25.6201 4.12309C25.6896 4.29156 25.8186 4.42039 25.9873 4.48976C26.1561 4.55913 26.3447 4.55913 26.5035 4.48976Z" fill="#AA8A00"/>
<path d="M14.4019 4.48976C14.521 4.44021 14.6302 4.35102 14.7096 4.24201C14.789 4.133 14.8287 4.00417 14.8287 3.86543C14.8287 3.72669 14.789 3.59787 14.7096 3.48886C14.6302 3.37985 14.5309 3.29066 14.4019 3.24111C14.2828 3.19156 14.1438 3.17174 14.0148 3.20147C13.8858 3.2312 13.7667 3.29066 13.6674 3.38976C13.5682 3.48886 13.5086 3.60777 13.4788 3.7366C13.4491 3.86543 13.4689 4.00417 13.5185 4.12309C13.588 4.29156 13.717 4.42039 13.8858 4.48976C14.0446 4.55913 14.2332 4.55913 14.4019 4.48976Z" fill="#AA8A00"/>
<path d="M5.58923 13.0821C5.96641 13.0821 6.26417 12.7749 6.26417 12.4082C6.26417 12.0317 5.95648 11.7344 5.58923 11.7344C5.22199 11.7344 4.9143 12.0416 4.9143 12.4082C4.90437 12.7848 5.21206 13.0821 5.58923 13.0821Z" fill="#AA8A00"/>
<path d="M5.58923 25.172C5.96641 25.172 6.26417 24.8648 6.26417 24.4981C6.26417 24.1215 5.95648 23.8242 5.58923 23.8242C5.22199 23.8242 4.9143 24.1314 4.9143 24.4981C4.90437 24.8648 5.21206 25.172 5.58923 25.172Z" fill="#AA8A00"/>
<path d="M13.8877 32.4153C13.7686 32.4649 13.6594 32.554 13.58 32.6631C13.5106 32.7721 13.4609 32.9009 13.4609 33.0396C13.4609 33.1685 13.5006 33.3072 13.58 33.4162C13.6594 33.5252 13.7587 33.6144 13.8877 33.664C14.0068 33.7135 14.1458 33.7333 14.2748 33.7036C14.4039 33.6739 14.523 33.6144 14.6222 33.5153C14.7215 33.4162 14.781 33.2973 14.8108 33.1685C14.8406 33.0396 14.8207 32.9009 14.7711 32.782C14.7016 32.6135 14.5726 32.4847 14.4039 32.4153C14.2351 32.3459 14.0465 32.3459 13.8877 32.4153Z" fill="#AA8A00"/>
<path d="M25.9854 32.4167C25.8663 32.4663 25.7571 32.5555 25.6777 32.6645C25.6082 32.7735 25.5586 32.9023 25.5586 33.0411C25.5586 33.1699 25.5983 33.3086 25.6777 33.4176C25.7571 33.5266 25.8564 33.6158 25.9854 33.6654C26.1045 33.7149 26.2435 33.7348 26.3725 33.705C26.5015 33.6753 26.6206 33.6158 26.7199 33.5167C26.8191 33.4176 26.8787 33.2987 26.9085 33.1699C26.9382 33.0411 26.9184 32.9023 26.8688 32.7834C26.839 32.7041 26.7894 32.6248 26.7199 32.5654C26.6603 32.5059 26.5809 32.4564 26.5015 32.4167C26.4221 32.387 26.3328 32.3672 26.2435 32.3672C26.1541 32.3672 26.0648 32.3771 25.9854 32.4167Z" fill="#AA8A00"/>
<path d="M34.7999 25.172C35.1771 25.172 35.4749 24.8648 35.4749 24.4981C35.4749 24.1215 35.1672 23.8242 34.7999 23.8242C34.4228 23.8242 34.125 24.1314 34.125 24.4981C34.125 24.8648 34.4327 25.172 34.7999 25.172Z" fill="#AA8A00"/>
<path d="M37.3202 18.3534L28.7246 14.8552L32.2283 6.27317L23.6824 9.87047L20.0795 1.32812L16.5757 9.91011L7.9802 6.41191L11.5832 14.9543L3.02734 18.5416L11.6229 22.0398L8.11916 30.6218L16.675 27.0245L20.268 35.5669L23.7718 26.9849L32.3673 30.4831L28.7643 21.9507L37.3202 18.3534Z" fill="#AA8A00"/>
<path d="M23.4252 26.1719L31.1969 29.3332L27.9413 21.6133L35.6733 18.3629L27.9115 15.2016L31.0778 7.44217L23.3458 10.6926L20.0902 2.96289L16.9239 10.7224L9.15221 7.56109L12.4078 15.2809L4.67578 18.5314L12.4475 21.6926L9.27132 29.4521L17.0133 26.2016L20.2589 33.9314L23.4252 26.1719Z" fill="white"/>
<path d="M21.0416 21.604C21.0416 18.4527 19.7413 17.6401 19.7413 14.5284C19.7711 13.3094 20.0093 12.1004 20.446 10.9707C20.178 14.132 22.848 16.1338 22.848 20.3455C22.848 23.0112 21.8058 24.5473 21.0217 24.5473C20.5254 24.5473 20.5552 24.2203 20.2971 24.2203C20.0391 24.2203 19.8108 24.6067 19.2947 24.6067C18.7686 24.6067 17.0713 23.7644 16.7934 20.0284C16.4956 20.7914 16.7438 21.8716 16.9026 22.4464C15.8505 20.5536 15.9001 18.2743 17.4485 15.9455C17.1507 18.3734 17.3393 20.3257 18.0837 22.0995C18.2425 22.4761 18.5205 22.6743 18.7686 22.4761C19.0167 22.2779 18.7686 21.8914 18.58 21.4653C18.3914 21.0392 16.317 16.4806 19.4336 12.7347C19.0763 16.0148 20.3964 18.0662 20.3964 19.6022C20.3964 21.1383 19.4733 23.1995 20.3666 23.1995C20.9125 23.1896 21.0416 22.1194 21.0416 21.604Z" fill="#EF3340"/>
<path d="M22.1541 23.8833C22.9184 23.3185 23.5437 22.5851 23.9804 21.7428C24.4172 20.9004 24.6454 19.9689 24.6653 19.0175C24.6653 16.3815 22.0052 14.241 21.5586 12.7148C21.5586 15.1527 23.2261 16.6887 23.2261 19.959C23.2162 22.9914 22.1541 23.8833 22.1541 23.8833Z" fill="#EF3340"/>
<path d="M19.3359 41.2051C19.2863 41.215 19.2367 41.2348 19.2069 41.2744C19.1672 41.3042 19.1275 41.3438 19.0878 41.3835C18.9588 41.5519 18.7603 41.651 18.5518 41.6808C18.4823 41.6808 18.4228 41.6609 18.3632 41.6411C18.3037 41.6114 18.2441 41.5717 18.2044 41.5222C17.3409 41.9384 16.5469 42.3943 15.9414 42.751C16.1995 42.7609 16.4476 42.8402 16.666 42.979C17.2913 42.5627 18.3831 41.9681 19.5047 41.3735C19.4154 41.2447 19.3558 41.2051 19.3359 41.2051Z" fill="#FFC600"/>
<path d="M22.3315 39.8477C21.9345 39.9666 21.4878 40.1152 21.0312 40.2936C21.1107 40.3828 21.1702 40.4819 21.2099 40.5909C21.7459 40.363 22.2322 40.1747 22.659 40.0359C22.53 40.0062 22.4208 39.9368 22.3315 39.8477Z" fill="#FFC600"/>
<path d="M17.1016 43.1879C17.5383 43.0888 17.9849 43.1285 18.4018 43.2771C18.9973 42.7816 19.6227 42.3258 20.2777 41.9195C20.0693 41.8997 19.8807 41.8105 19.7219 41.6816C18.8088 42.1177 17.9353 42.6231 17.1016 43.1879Z" fill="#FFC600"/>
<path d="M20.8941 38.729C21.3407 38.1344 21.8271 37.5894 22.373 37.084C21.6782 37.2921 20.9834 37.8074 20.4375 38.2732C20.5665 38.3425 20.6856 38.4416 20.775 38.5507C20.8246 38.6101 20.8643 38.6696 20.8941 38.729Z" fill="#FFC600"/>
<path d="M38.3409 27.7084C38.7479 27.2228 38.8074 26.7967 38.8074 25.2012C38.5494 25.6273 37.8149 26.6183 37.6958 27.0841C37.4576 27.9759 37.9439 28.2039 38.3409 27.7084Z" fill="#FFC600"/>
<path d="M38.0017 29.3435C38.4087 28.9768 38.7362 28.3227 38.8851 27.6191C38.4087 28.2038 37.8826 28.2137 37.5352 28.5903C36.8702 29.3137 37.5948 29.7101 38.0017 29.3435Z" fill="#FFC600"/>
<path d="M37.3883 28.2736C37.4875 27.9565 37.2692 27.2925 37.3585 26.7871C36.9218 27.2727 36.6141 28.1745 36.8027 28.5907C36.9813 29.0168 37.289 28.5808 37.3883 28.2736Z" fill="#FFC600"/>
<path d="M36.426 29.7095C36.7933 29.3231 36.2275 28.4807 36.4756 27.3906C36.4756 27.3906 35.7312 28.5897 35.6518 29.0357C35.3838 30.5023 36.0488 30.096 36.426 29.7095Z" fill="#FFC600"/>
<path d="M37.0708 30.8208C37.448 30.7911 37.9145 30.3551 38.4008 29.4434C38.0137 29.8893 37.0013 29.7109 36.7036 30.0479C36.6341 30.1172 36.5845 30.1965 36.5646 30.2956C36.5448 30.3947 36.5547 30.4839 36.5944 30.5731C36.6341 30.6623 36.7036 30.7316 36.783 30.7812C36.8822 30.8208 36.9815 30.8407 37.0708 30.8208Z" fill="#FFC600"/>
<path d="M35.7805 31.989C35.5225 32.2962 35.2148 32.6034 34.9766 32.8314C34.4207 33.2179 33.6962 33.2079 33.2992 33.4953C32.654 33.971 33.0609 34.2287 33.5274 34.1197C33.855 34.0404 34.2123 33.7827 34.8972 32.9899C35.2148 32.6926 35.5225 32.3854 35.8004 32.0584C35.85 32.1674 35.9394 32.2665 36.0485 32.3161C36.1577 32.3656 36.2867 32.3755 36.4059 32.3359C36.8823 32.217 37.1106 32.0584 37.9939 30.7305C37.6565 30.9188 36.4952 30.9485 36.0287 31.4242C35.9493 31.4935 35.8798 31.5827 35.8401 31.6719C35.7905 31.7809 35.7706 31.88 35.7805 31.989Z" fill="#FFC600"/>
<path d="M32.1269 34.0203C32.1765 33.4753 32.0177 33.5546 32.5239 32.623C32.3056 32.7816 31.4023 33.4852 31.4023 34.1888C31.4123 35.1402 32.0773 34.5654 32.1269 34.0203Z" fill="#FFC600"/>
<path d="M30.7891 35.2605C31.2456 34.8145 30.928 34.3389 31.3846 33.4668C31.3846 33.4668 30.6005 34.0317 30.3226 34.6956C30.0248 35.3695 30.3226 35.7064 30.7891 35.2605Z" fill="#FFC600"/>
<path d="M29.6653 36.0723C30.241 35.4876 29.844 35.0416 30.2013 34.3281C29.8936 34.6452 29.447 34.9624 29.169 35.4579C28.8514 36.0425 29.0896 36.657 29.6653 36.0723Z" fill="#FFC600"/>
<path d="M28.2876 36.9844C28.9526 36.3898 28.5258 35.7754 29.3298 34.834C28.8236 35.0817 27.9203 35.8745 27.6325 36.4493C27.3447 37.0241 27.6226 37.5889 28.2876 36.9844Z" fill="#FFC600"/>
<path d="M26.8101 37.7066C27.2766 37.2408 27.3262 36.4381 27.9019 35.457C27.5743 35.6651 26.5024 36.2796 26.0756 36.9931C25.5694 37.8354 26.3436 38.1723 26.8101 37.7066Z" fill="#FFC600"/>
<path d="M24.9726 38.5992C25.9056 37.6974 25.4887 37.41 26.2034 36.2109C25.4193 36.6767 24.7443 37.3109 24.2183 38.0641C23.9701 38.4704 24.1389 39.4118 24.9726 38.5992Z" fill="#FFC600"/>
<path d="M22.5015 39.0253C22.1839 39.7091 22.7595 40.046 23.236 39.6001C23.7124 39.1541 23.901 38.0145 24.8935 36.6172C24.2186 37.0136 22.9779 38.0046 22.5015 39.0253Z" fill="#FFC600"/>
<path d="M21.7948 39.7992C22.5988 38.9767 22.3903 38.3028 23.6509 36.9551C22.6881 37.3019 21.229 38.4416 20.832 39.274C20.4648 40.0668 21.2588 40.3443 21.7948 39.7992Z" fill="#FFC600"/>
<path d="M17.0201 43.3765C16.4444 43.644 17.3377 43.9017 18.0623 43.644C18.7968 43.3864 17.5064 43.1584 17.0201 43.3765Z" fill="#FFC600"/>
<path d="M15.7014 42.9199C15.0364 43.0785 15.7213 43.356 16.2175 43.247C16.7039 43.1479 16.1183 42.8307 15.7014 42.9199Z" fill="#FFC600"/>
<path d="M25.7266 43.4741C26.4511 43.4939 27.1757 43.3552 27.8506 43.0579C27.5529 43.0083 27.265 42.929 26.9871 42.8398C26.6199 43.1471 26.1831 43.3651 25.7266 43.4741Z" fill="#FFC600"/>
<path d="M27.2242 40.7799C26.9165 40.988 26.6088 41.1763 26.2812 41.3448C27.6311 41.5034 29.0009 41.5529 30.3607 41.5034C30.579 41.2259 30.7478 40.9286 30.8768 40.6016C29.6659 40.7502 28.445 40.8097 27.2242 40.7799Z" fill="#FFC600"/>
<path d="M29.1602 42.1671C29.1899 42.177 30.0336 41.6914 30.0336 41.6914H29.5373C29.3984 41.8401 29.2693 41.9986 29.1602 42.1671Z" fill="#FFC600"/>
<path d="M29.3509 39.8488L29.1325 39.9181C28.7256 40.047 28.3583 40.156 28.0109 40.2551C28.7156 40.3145 29.5792 40.1659 30.6412 39.8686C30.1846 39.8389 29.738 39.7199 29.331 39.5416C29.1027 39.4425 28.8447 39.4326 28.6065 39.5118L28.5469 39.5317C28.0308 39.71 27.5047 39.8488 26.9688 39.9578C27.2268 40.0965 27.5047 40.1956 27.7926 40.2353C28.1896 40.1263 28.6263 39.9875 29.1226 39.8389L29.341 39.7695C29.3509 39.7695 29.3608 39.7695 29.3807 39.7695C29.3906 39.7794 29.4005 39.7893 29.4005 39.7992C29.4005 39.8091 29.4005 39.819 29.4005 39.8389C29.3707 39.8389 29.3608 39.8389 29.3509 39.8488Z" fill="#FFC600"/>
<path d="M31.465 37.1232C31.723 37.0142 31.9811 36.8953 32.2292 36.7665C32.0109 36.7269 31.7826 36.707 31.5543 36.707C31.326 36.8359 31.0779 36.9449 30.8198 37.0341C30.7801 37.0836 30.7602 37.1332 30.7305 37.1926C30.9091 37.2323 31.0977 37.2223 31.2764 37.1827C31.2962 37.1728 31.3657 37.153 31.465 37.1232Z" fill="#FFC600"/>
<path d="M32.3679 36.7852C32.219 36.8743 32.0701 36.9437 31.9311 37.0131C31.544 37.2509 31.1569 37.4788 30.75 37.6671C30.8393 37.8455 31.0478 37.9644 31.3852 37.9644C32.0999 37.9644 32.8046 37.6374 34.0453 36.8843C33.4895 36.9635 32.9237 36.9239 32.3679 36.7852Z" fill="#FFC600"/>
<path d="M33.6555 35.5375C33.4769 35.5177 33.3181 35.5078 33.1592 35.5078C32.8714 35.6763 32.5736 35.8249 32.2659 35.9538C32.2362 36.033 32.2362 36.1321 32.256 36.2114C32.7424 36.033 33.2089 35.8051 33.6555 35.5375Z" fill="#FFC600"/>
<path d="M33.8056 35.5475C33.3291 35.8547 32.8229 36.1025 32.2969 36.3007C32.3564 36.4196 32.4656 36.5187 32.6046 36.5583C32.7535 36.4691 32.9123 36.38 33.0909 36.2709C33.1008 36.261 33.1108 36.261 33.1207 36.2709C33.1306 36.2709 33.1405 36.2809 33.1505 36.2908C33.1604 36.3007 33.1604 36.3106 33.1604 36.3205C33.1604 36.3304 33.1505 36.3403 33.1405 36.3502C32.9917 36.4394 32.8527 36.5187 32.7237 36.598C32.8229 36.6178 32.9123 36.6178 33.0115 36.6079C34.1927 36.4592 34.7485 36.0133 35.5922 35.3691C35.0066 35.5475 34.4011 35.607 33.8056 35.5475Z" fill="#FFC600"/>
<path d="M34.905 34.1094C34.8454 34.1491 34.7858 34.1788 34.7263 34.2085C34.4285 34.4563 34.1109 34.6842 33.7734 34.8626C33.7734 34.932 33.7933 34.9914 33.8231 35.0509C34.1506 34.8725 34.4583 34.6644 34.7362 34.4266C34.7461 34.4166 34.7561 34.4166 34.766 34.4166C34.7759 34.4166 34.7858 34.4266 34.7958 34.4365C34.8057 34.4464 34.8057 34.4563 34.8057 34.4662C34.8057 34.4761 34.7958 34.486 34.7858 34.4959C34.5079 34.7338 34.2002 34.9518 33.8727 35.1203C33.9521 35.1797 34.0514 35.2094 34.1506 35.2194C34.2499 35.2293 34.3491 35.2194 34.4484 35.1896C35.56 34.9419 36.3739 33.9707 36.3739 33.9707C35.8975 34.0896 35.4012 34.1392 34.905 34.1094Z" fill="#FFC600"/>
<path d="M34.8789 33.5063C34.8988 33.5855 34.9385 33.6549 34.9881 33.7044C35.0377 33.7639 35.1072 33.8035 35.1866 33.8234C35.4447 33.645 35.7226 33.427 36.1097 33.0999C36.1196 33.09 36.1295 33.09 36.1395 33.09C36.1494 33.09 36.1593 33.0999 36.1692 33.1099C36.1792 33.1198 36.1792 33.1297 36.1792 33.1396C36.1792 33.1495 36.1692 33.1594 36.1593 33.1693C35.8119 33.4666 35.5439 33.6846 35.2958 33.8531C35.395 33.863 35.4844 33.863 35.5836 33.8432C36.06 33.7441 36.4571 33.4369 37.3901 32.4062C36.864 32.4459 36.338 32.5252 35.8218 32.6342C35.534 32.9513 35.2164 33.2387 34.8789 33.5063Z" fill="#FFC600"/>
<path d="M35.6712 32.6738C35.5322 32.7036 35.3932 32.763 35.2642 32.8324C35.165 32.8918 35.0756 32.9711 35.0061 33.0702C34.9367 33.1693 34.897 33.2783 34.8672 33.3873C35.155 33.1693 35.4131 32.9315 35.6712 32.6738Z" fill="#FFC600"/>
<path d="M34.7876 30.4533L34.7976 30.4632C34.7976 30.4731 34.7976 30.4731 34.8075 30.483C34.8075 30.4929 34.8075 30.4929 34.8075 30.5028C34.8075 30.5128 34.8075 30.5128 34.7976 30.5227C34.6586 30.701 34.5197 30.8596 34.3906 30.9983C34.3906 31.0677 34.4005 31.1272 34.4303 31.1866C34.4601 31.2461 34.4899 31.3055 34.5395 31.3452C34.7976 31.038 35.0854 30.701 35.2939 30.4731C35.3336 30.0965 35.3038 29.6407 35.3137 29.2344C35.0556 29.4821 34.4204 30.2947 34.3906 30.8695C34.4998 30.7506 34.609 30.6119 34.7182 30.4731L34.7281 30.4632C34.738 30.4632 34.738 30.4533 34.7479 30.4533C34.7579 30.4533 34.7579 30.4533 34.7678 30.4533C34.7777 30.4533 34.7876 30.4533 34.7876 30.4533Z" fill="#FFC600"/>
<path d="M35.0773 31.1679C35.1965 31.0094 35.2659 30.8211 35.2858 30.6328C35.0873 30.8508 34.8491 31.1283 34.6406 31.386C34.73 31.3959 34.8193 31.3761 34.8888 31.3364C34.9582 31.3067 35.0277 31.2472 35.0773 31.1679Z" fill="#FFC600"/>
<path d="M32.3657 34.3968C31.7106 34.7733 31.9985 35.0805 32.5444 35.0607C33.0903 35.0409 33.6461 34.8625 34.599 34.1094C33.934 34.367 32.9315 34.0796 32.3657 34.3968Z" fill="#FFC600"/>
<path d="M30.8884 35.3991C30.5212 35.7163 30.6601 36.0631 31.1365 36.0631C31.6229 36.0631 32.0894 35.9739 33.2209 35.3199C32.1489 35.4289 31.4542 34.9235 30.8884 35.3991Z" fill="#FFC600"/>
<path d="M31.9476 36.3308C31.1535 36.42 30.1114 35.9938 29.7143 36.2614C29.4662 36.4299 29.4265 36.7965 29.8731 36.9155C30.5481 37.1037 31.0543 36.8659 31.9476 36.3308Z" fill="#FFC600"/>
<path d="M23.532 39.7391C22.7777 39.8085 22.6288 40.7995 23.7504 40.9283C24.872 41.0571 26.1722 40.8689 27.6015 40.3238C25.8645 40.4824 24.475 39.6499 23.532 39.7391Z" fill="#FFC600"/>
<path d="M32.427 33.8224C32.5759 33.9513 32.8538 33.7828 33.1615 33.3666C33.4692 32.9504 33.0424 32.5342 34.2235 31.127C33.7372 31.5927 33.2806 32.0981 32.8637 32.6333C32.4568 33.1783 32.2781 33.6936 32.427 33.8224Z" fill="#FFC600"/>
<path d="M33.6664 32.4164C33.2495 32.9812 33.8352 33.3578 34.262 32.9416C34.4208 32.783 34.5498 32.6047 34.6689 32.4164C35.0361 32.0992 35.6912 31.4452 36.1577 30.9398L36.1677 30.9299V30.92V30.9101C36.1677 30.9101 36.1677 30.9001 36.1577 30.9001C36.1577 30.9001 36.1478 30.9001 36.1478 30.8902H36.1379H36.128C36.128 30.8902 36.118 30.8902 36.118 30.9001C35.7012 31.3461 35.1553 31.8911 34.788 32.238C34.927 32.0101 35.0659 31.7425 35.2247 31.4353C35.5721 31.0785 35.8897 30.692 36.1677 30.2857V30.2758V30.2659V30.256L36.1577 30.2461H36.1478H36.1379H36.128L36.118 30.256C35.8401 30.6623 35.5324 31.0389 35.195 31.3956C34.917 31.5047 34.0337 31.9308 33.6664 32.4164Z" fill="#FFC600"/>
<path d="M21.6289 40.7501C23.2865 41.5032 26.82 42.742 28.0507 42.9104C28.1798 42.296 28.2989 41.7312 28.2989 41.7312C25.8175 41.523 24.1699 41.3149 22.0359 40.6113C21.8572 40.6708 21.6289 40.7501 21.6289 40.7501Z" fill="#FFC600"/>
<path d="M27.4841 39.0356C27.3749 39.0356 27.2558 39.0356 27.1367 39.0257C27.6231 39.1842 28.1293 39.2536 28.6454 39.2536C28.5064 39.1842 28.3873 39.105 28.2682 39.0059C28.0102 39.0257 27.7422 39.0455 27.4841 39.0356Z" fill="#FFC600"/>
<path d="M28.3662 37.1715C27.7806 37.5877 28.0883 37.9643 28.5846 38.0039C29.071 38.0435 30.0635 37.885 31.0362 37.3201C30.5697 37.3895 29.1206 36.6462 28.3662 37.1715Z" fill="#FFC600"/>
<path d="M26.9076 37.8752C26.4312 37.9843 25.8853 38.7473 26.7289 38.8563C27.6322 38.9852 28.5652 38.8662 29.4088 38.5095C28.5553 38.4203 27.6222 37.7068 26.9076 37.8752Z" fill="#FFC600"/>
<path d="M29.6678 38.3715C30.0549 38.2823 30.4321 38.1634 30.7894 38.0147C30.6505 37.9454 30.5313 37.876 30.4122 37.8066C29.8763 38.0346 29.3006 38.1535 28.7249 38.1436C28.6753 38.1436 28.6356 38.1436 28.5959 38.1436L28.5859 38.1535C28.9036 38.2625 29.2907 38.4211 29.6678 38.3715Z" fill="#FFC600"/>
<path d="M30.9083 38.0742C30.6006 38.1931 30.3326 38.2922 30.0647 38.3616C29.5485 38.5994 29.0225 38.7976 28.4766 38.9364C28.5361 39.0157 28.6056 39.0751 28.6949 39.1247C28.7743 39.1742 28.8736 39.2039 28.9629 39.2139C28.9828 39.2139 29.0125 39.2238 29.0324 39.2238C29.6379 39.1148 30.2235 38.9166 30.7594 38.6391C30.7694 38.6292 30.7793 38.6292 30.7892 38.6391C30.7991 38.6391 30.8091 38.649 30.819 38.6589C30.8289 38.6688 30.8289 38.6787 30.819 38.6985C30.819 38.7085 30.8091 38.7184 30.7991 38.7283C30.3227 38.976 29.8264 39.1544 29.3004 39.2733C30.2632 39.3625 31.216 39.0751 32.953 38.2229C31.8711 38.3715 31.3053 38.2427 30.9083 38.0742Z" fill="#FFC600"/>
<path d="M25.1305 38.8083C24.3762 38.9669 24.3365 39.6408 24.9717 39.8191C25.6069 39.9876 26.5995 39.9876 28.525 39.3831C27.324 39.3732 25.9444 38.6399 25.1305 38.8083Z" fill="#FFC600"/>
<path d="M26.708 39.9961C26.4896 40.0357 26.2713 40.0556 26.043 40.0655C26.4201 40.1447 26.7973 40.1943 27.1844 40.2042C27.0157 40.1547 26.8569 40.0853 26.708 39.9961Z" fill="#FFC600"/>
<path d="M49.6875 19.5985H48L51.0724 10.8713H53.0241L56.1009 19.5985H54.4134L52.0824 12.661H52.0142L49.6875 19.5985ZM49.7429 16.1767H54.3452V17.4466H49.7429V16.1767Z" fill="white"/>
<path d="M57.0884 19.5985V18.6142L61.5629 12.1966H57.0629V10.8713H63.5231V11.8556L59.0529 18.2733H63.5487V19.5985H57.0884Z" fill="white"/>
<path d="M68.6154 19.7179C67.8881 19.7179 67.2546 19.5588 66.7148 19.2406C66.1779 18.9224 65.7603 18.4664 65.462 17.8727C65.1665 17.2761 65.0188 16.5616 65.0188 15.7292V14.8258H71.266V16.1341H66.6594V16.3173C66.6594 16.7377 66.7361 17.0971 66.8896 17.3954C67.0458 17.6909 67.2688 17.9167 67.5586 18.073C67.8512 18.2292 68.1978 18.3074 68.5984 18.3074C69.087 18.3074 69.4918 18.198 69.8129 17.9792C70.1367 17.7576 70.3782 17.4537 70.5373 17.0673C70.6964 16.6809 70.7759 16.2377 70.7759 15.7377V14.7662C70.7759 14.3741 70.7276 14.019 70.631 13.7008C70.5373 13.3826 70.3881 13.1113 70.1836 12.8869C69.9819 12.6596 69.7163 12.4849 69.3867 12.3627C69.0572 12.2406 68.6566 12.1795 68.185 12.1795C67.9435 12.1795 67.6935 12.1951 67.435 12.2264C67.1793 12.2548 66.9308 12.2974 66.6893 12.3542C66.4478 12.411 66.2234 12.4778 66.016 12.5545L65.7219 11.2377C65.8242 11.1781 65.9691 11.1199 66.1566 11.063C66.3441 11.0062 66.5572 10.9537 66.7958 10.9054C67.0373 10.8571 67.2901 10.8201 67.5543 10.7946C67.8185 10.7662 68.0813 10.752 68.3427 10.752C69.2035 10.752 69.9379 10.9181 70.5458 11.2505C71.1538 11.5829 71.6183 12.0502 71.9393 12.6525C72.2631 13.2548 72.4251 13.9593 72.4251 14.7662V15.7377C72.4251 16.5048 72.2674 17.188 71.9521 17.7875C71.6396 18.3869 71.1978 18.8585 70.6268 19.2022C70.0558 19.546 69.3853 19.7179 68.6154 19.7179Z" fill="white"/>
<path d="M74.0785 19.5985V10.8713H77.3512C78.0217 10.8713 78.5842 10.9877 79.0387 11.2207C79.4961 11.4537 79.8413 11.7804 80.0742 12.2008C80.31 12.6184 80.4279 13.1056 80.4279 13.6625C80.4279 14.2221 80.3086 14.7079 80.07 15.1199C79.8342 15.5289 79.4862 15.8457 79.0259 16.0701C78.5657 16.2917 78.0004 16.4025 77.3299 16.4025H74.9989V15.09H77.1168C77.5089 15.09 77.8299 15.036 78.0799 14.9281C78.3299 14.8173 78.5146 14.6568 78.6339 14.4466C78.756 14.2335 78.8171 13.9721 78.8171 13.6625C78.8171 13.3528 78.756 13.0886 78.6339 12.8699C78.5117 12.6483 78.3256 12.4806 78.0756 12.367C77.8256 12.2505 77.5032 12.1923 77.1083 12.1923H75.6594V19.5985H74.0785ZM78.587 15.644L80.7475 19.5985H78.9833L76.8612 15.644H78.587Z" fill="white"/>
<path d="M81.8832 19.5985V10.8713H85.2241C85.8548 10.8713 86.3789 10.9707 86.7965 11.1696C87.217 11.3656 87.5309 11.6341 87.7383 11.975C87.9485 12.3159 88.0536 12.7022 88.0536 13.1341C88.0536 13.4892 87.9854 13.7931 87.8491 14.046C87.7127 14.296 87.5295 14.4991 87.2994 14.6554C87.0692 14.8116 86.8121 14.9238 86.5281 14.992V15.0772C86.8377 15.0943 87.1346 15.1895 87.4187 15.3627C87.7056 15.5332 87.94 15.7747 88.1218 16.0872C88.3036 16.3997 88.3945 16.7775 88.3945 17.2207C88.3945 17.6724 88.2852 18.0787 88.0664 18.4395C87.8477 18.7974 87.5181 19.0801 87.0778 19.2875C86.6374 19.4949 86.0835 19.5985 85.4158 19.5985H81.8832ZM83.4641 18.2775H85.1644C85.7383 18.2775 86.1516 18.1681 86.4045 17.9494C86.6602 17.7278 86.788 17.4437 86.788 17.0971C86.788 16.8386 86.7241 16.6056 86.5962 16.3983C86.4684 16.188 86.2866 16.0233 86.0508 15.9039C85.815 15.7818 85.5337 15.7207 85.207 15.7207H83.4641V18.2775ZM83.4641 14.5829H85.0281C85.3008 14.5829 85.5465 14.5332 85.7653 14.4338C85.984 14.3315 86.1559 14.188 86.2809 14.0034C86.4087 13.8159 86.4727 13.5943 86.4727 13.3386C86.4727 13.0005 86.3533 12.7221 86.1147 12.5034C85.8789 12.2846 85.5281 12.1752 85.0621 12.1752H83.4641V14.5829Z" fill="white"/>
<path d="M90.8906 19.5985H89.2031L92.2756 10.8713H94.2273L97.304 19.5985H95.6165L93.2855 12.661H93.2173L90.8906 19.5985ZM90.946 16.1767H95.5483V17.4466H90.946V16.1767Z" fill="white"/>
<path d="M96.9663 10.8713H98.7518L100.887 14.7321H100.972L103.107 10.8713H104.892L101.718 16.3429V19.5985H100.141V16.3429L96.9663 10.8713Z" fill="white"/>
<path d="M112.99 13.8159H111.396C111.351 13.5545 111.267 13.323 111.145 13.1213C111.023 12.9167 110.871 12.7434 110.689 12.6014C110.507 12.4593 110.3 12.3528 110.067 12.2818C109.837 12.2079 109.588 12.171 109.321 12.171C108.847 12.171 108.426 12.2903 108.06 12.5289C107.693 12.7647 107.406 13.1113 107.199 13.5687C106.991 14.0233 106.888 14.5787 106.888 15.2349C106.888 15.9025 106.991 16.465 107.199 16.9224C107.409 17.377 107.696 17.7207 108.06 17.9537C108.426 18.1838 108.845 18.2988 109.317 18.2988C109.578 18.2988 109.822 18.2647 110.05 18.1966C110.28 18.1255 110.486 18.0218 110.668 17.8855C110.852 17.7491 111.007 17.5815 111.132 17.3826C111.26 17.1838 111.348 16.9565 111.396 16.7008L112.99 16.7093C112.93 17.1241 112.801 17.5133 112.602 17.877C112.406 18.2406 112.149 18.5616 111.831 18.84C111.513 19.1156 111.141 19.3315 110.714 19.4877C110.288 19.6412 109.815 19.7179 109.295 19.7179C108.528 19.7179 107.844 19.5403 107.241 19.1852C106.639 18.8301 106.165 18.3173 105.818 17.6468C105.472 16.9764 105.298 16.1724 105.298 15.2349C105.298 14.2946 105.473 13.4906 105.822 12.823C106.172 12.1525 106.648 11.6397 107.25 11.2846C107.852 10.9295 108.534 10.752 109.295 10.752C109.781 10.752 110.233 10.8201 110.651 10.9565C111.068 11.0929 111.44 11.2931 111.767 11.5574C112.094 11.8187 112.362 12.1397 112.572 12.5204C112.786 12.8983 112.925 13.3301 112.99 13.8159Z" fill="white"/>
<path d="M115.453 19.5985H113.766L116.838 10.8713H118.79L121.866 19.5985H120.179L117.848 12.661H117.78L115.453 19.5985ZM115.509 16.1767H120.111V17.4466H115.509V16.1767Z" fill="white"/>
<path d="M130.188 10.8713V19.5985H128.782L124.669 13.6539H124.597V19.5985H123.016V10.8713H124.431L128.539 16.8201H128.615V10.8713H130.188Z" fill="white"/>
<path d="M134.887 19.5985V10.8713H138.16C138.83 10.8713 139.393 10.9877 139.847 11.2207C140.305 11.4537 140.65 11.7804 140.883 12.2008C141.119 12.6184 141.237 13.1056 141.237 13.6625C141.237 14.2221 141.117 14.7079 140.879 15.1199C140.643 15.5289 140.295 15.8457 139.835 16.0701C139.374 16.2917 138.809 16.4025 138.138 16.4025H135.808V15.09H137.925C138.317 15.09 138.638 15.036 138.888 14.9281C139.138 14.8173 139.323 14.6568 139.442 14.4466C139.565 14.2335 139.626 13.9721 139.626 13.6625C139.626 13.3528 139.565 13.0886 139.442 12.8699C139.32 12.6483 139.134 12.4806 138.884 12.367C138.634 12.2505 138.312 12.1923 137.917 12.1923H136.468V19.5985H134.887ZM139.396 15.644L141.556 19.5985H139.792L137.67 15.644H139.396Z" fill="white"/>
<path d="M142.692 19.5985V10.8713H148.368V12.1966H144.273V14.5659H148.074V15.8912H144.273V18.2733H148.402V19.5985H142.692Z" fill="white"/>
<path d="M154.724 13.2704C154.684 12.8983 154.516 12.6085 154.221 12.4011C153.928 12.1937 153.548 12.09 153.079 12.09C152.749 12.09 152.467 12.1397 152.231 12.2392C151.995 12.3386 151.815 12.4735 151.69 12.644C151.565 12.8145 151.501 13.0091 151.498 13.2278C151.498 13.4096 151.539 13.5673 151.621 13.7008C151.707 13.8343 151.822 13.948 151.967 14.0417C152.112 14.1326 152.272 14.2093 152.448 14.2718C152.624 14.3343 152.802 14.3869 152.981 14.4295L153.799 14.6341C154.129 14.7108 154.445 14.8145 154.749 14.9451C155.056 15.0758 155.33 15.2406 155.572 15.4395C155.816 15.6383 156.009 15.8784 156.151 16.1596C156.293 16.4409 156.364 16.7704 156.364 17.1483C156.364 17.6596 156.234 18.1099 155.972 18.4991C155.711 18.8855 155.333 19.188 154.839 19.4068C154.347 19.6227 153.752 19.7306 153.053 19.7306C152.374 19.7306 151.785 19.6255 151.285 19.4153C150.788 19.2051 150.398 18.8983 150.117 18.4949C149.839 18.0914 149.688 17.6 149.665 17.0204H151.221C151.244 17.3244 151.337 17.5772 151.502 17.7789C151.667 17.9806 151.881 18.1312 152.146 18.2306C152.413 18.3301 152.711 18.3798 153.04 18.3798C153.384 18.3798 153.685 18.3287 153.944 18.2264C154.205 18.1213 154.41 17.9764 154.558 17.7917C154.705 17.6042 154.781 17.3855 154.783 17.1355C154.781 16.9082 154.714 16.7207 154.583 16.573C154.452 16.4224 154.269 16.2974 154.033 16.198C153.8 16.0957 153.528 16.0048 153.215 15.9252L152.222 15.6696C151.504 15.4849 150.935 15.2051 150.518 14.8301C150.103 14.4522 149.896 13.9508 149.896 13.3258C149.896 12.8116 150.035 12.3613 150.313 11.975C150.594 11.5886 150.977 11.2889 151.46 11.0758C151.942 10.8599 152.489 10.752 153.1 10.752C153.719 10.752 154.262 10.8599 154.728 11.0758C155.197 11.2889 155.565 11.5858 155.832 11.9664C156.099 12.3443 156.237 12.7789 156.245 13.2704H154.724Z" fill="white"/>
<path d="M157.774 19.5985V10.8713H161.047C161.717 10.8713 162.279 10.9963 162.734 11.2463C163.191 11.4963 163.537 11.84 163.77 12.2775C164.005 12.7122 164.123 13.2065 164.123 13.7605C164.123 14.3201 164.005 14.8173 163.77 15.252C163.534 15.6866 163.186 16.0289 162.725 16.2789C162.265 16.5261 161.699 16.6497 161.025 16.6497H158.856V15.35H160.812C161.204 15.35 161.525 15.2818 161.775 15.1454C162.025 15.0091 162.21 14.8216 162.329 14.5829C162.451 14.3443 162.512 14.0701 162.512 13.7605C162.512 13.4508 162.451 13.1781 162.329 12.9423C162.21 12.7065 162.024 12.5233 161.771 12.3926C161.521 12.2591 161.199 12.1923 160.804 12.1923H159.355V19.5985H157.774Z" fill="white"/>
<path d="M170.998 10.8713H172.579V16.573C172.579 17.198 172.431 17.7477 172.136 18.2221C171.843 18.6966 171.431 19.0673 170.9 19.3343C170.369 19.5985 169.748 19.7306 169.038 19.7306C168.325 19.7306 167.702 19.5985 167.171 19.3343C166.64 19.0673 166.228 18.6966 165.935 18.2221C165.643 17.7477 165.496 17.198 165.496 16.573V10.8713H167.077V16.4409C167.077 16.8045 167.157 17.1284 167.316 17.4125C167.478 17.6966 167.705 17.9196 167.998 18.0815C168.29 18.2406 168.637 18.3201 169.038 18.3201C169.438 18.3201 169.785 18.2406 170.077 18.0815C170.373 17.9196 170.6 17.6966 170.759 17.4125C170.918 17.1284 170.998 16.8045 170.998 16.4409V10.8713Z" fill="white"/>
<path d="M174.297 19.5985V10.8713H177.638C178.269 10.8713 178.793 10.9707 179.211 11.1696C179.631 11.3656 179.945 11.6341 180.152 11.975C180.363 12.3159 180.468 12.7022 180.468 13.1341C180.468 13.4892 180.4 13.7931 180.263 14.046C180.127 14.296 179.944 14.4991 179.713 14.6554C179.483 14.8116 179.226 14.9238 178.942 14.992V15.0772C179.252 15.0943 179.549 15.1895 179.833 15.3627C180.12 15.5332 180.354 15.7747 180.536 16.0872C180.718 16.3997 180.809 16.7775 180.809 17.2207C180.809 17.6724 180.699 18.0787 180.48 18.4395C180.262 18.7974 179.932 19.0801 179.492 19.2875C179.051 19.4949 178.498 19.5985 177.83 19.5985H174.297ZM175.878 18.2775H177.578C178.152 18.2775 178.566 18.1681 178.819 17.9494C179.074 17.7278 179.202 17.4437 179.202 17.0971C179.202 16.8386 179.138 16.6056 179.01 16.3983C178.882 16.188 178.701 16.0233 178.465 15.9039C178.229 15.7818 177.948 15.7207 177.621 15.7207H175.878V18.2775ZM175.878 14.5829H177.442C177.715 14.5829 177.961 14.5332 178.179 14.4338C178.398 14.3315 178.57 14.188 178.695 14.0034C178.823 13.8159 178.887 13.5943 178.887 13.3386C178.887 13.0005 178.767 12.7221 178.529 12.5034C178.293 12.2846 177.942 12.1752 177.476 12.1752H175.878V14.5829Z" fill="white"/>
<path d="M182.184 19.5985V10.8713H183.765V18.2733H187.609V19.5985H182.184Z" fill="white"/>
<path d="M190.562 10.8713V19.5985H188.981V10.8713H190.562ZM189.773 9.94229C189.526 9.94229 189.315 9.86133 189.138 9.6994C188.965 9.53462 188.879 9.33718 188.879 9.10707C188.879 8.87411 188.967 8.67667 189.143 8.51474C189.319 8.34996 189.529 8.26758 189.773 8.26758C190.018 8.26758 190.227 8.34996 190.4 8.51474C190.576 8.67667 190.664 8.87411 190.664 9.10707C190.664 9.33718 190.576 9.53462 190.4 9.6994C190.227 9.86133 190.018 9.94229 189.773 9.94229Z" fill="white"/>
<path d="M192.274 19.5985V10.8713H193.855V14.8812H193.961L197.366 10.8713H199.297L195.922 14.7875L199.326 19.5985H197.426L194.822 15.8571L193.855 16.9991V19.5985H192.274Z" fill="white"/>
<path d="M201.516 19.5985H199.828L202.901 10.8713H204.852L207.929 19.5985H206.241L203.911 12.661H203.842L201.516 19.5985ZM201.571 16.1767H206.173V17.4466H201.571V16.1767Z" fill="white"/>
<path d="M213.681 13.2704C213.641 12.8983 213.473 12.6085 213.178 12.4011C212.885 12.1937 212.505 12.09 212.036 12.09C211.706 12.09 211.424 12.1397 211.188 12.2392C210.952 12.3386 210.772 12.4735 210.647 12.644C210.522 12.8145 210.458 13.0091 210.455 13.2278C210.455 13.4096 210.496 13.5673 210.578 13.7008C210.664 13.8343 210.779 13.948 210.924 14.0417C211.069 14.1326 211.229 14.2093 211.405 14.2718C211.581 14.3343 211.759 14.3869 211.938 14.4295L212.756 14.6341C213.086 14.7108 213.402 14.8145 213.706 14.9451C214.013 15.0758 214.287 15.2406 214.529 15.4395C214.773 15.6383 214.966 15.8784 215.108 16.1596C215.25 16.4409 215.321 16.7704 215.321 17.1483C215.321 17.6596 215.191 18.1099 214.929 18.4991C214.668 18.8855 214.29 19.188 213.796 19.4068C213.304 19.6227 212.709 19.7306 212.01 19.7306C211.331 19.7306 210.742 19.6255 210.242 19.4153C209.745 19.2051 209.355 18.8983 209.074 18.4949C208.796 18.0914 208.645 17.6 208.623 17.0204H210.178C210.201 17.3244 210.294 17.5772 210.459 17.7789C210.624 17.9806 210.838 18.1312 211.103 18.2306C211.37 18.3301 211.668 18.3798 211.998 18.3798C212.341 18.3798 212.642 18.3287 212.901 18.2264C213.162 18.1213 213.367 17.9764 213.515 17.7917C213.662 17.6042 213.738 17.3855 213.74 17.1355C213.738 16.9082 213.671 16.7207 213.54 16.573C213.409 16.4224 213.226 16.2974 212.99 16.198C212.757 16.0957 212.485 16.0048 212.172 15.9252L211.179 15.6696C210.461 15.4849 209.892 15.2051 209.475 14.8301C209.06 14.4522 208.853 13.9508 208.853 13.3258C208.853 12.8116 208.992 12.3613 209.27 11.975C209.551 11.5886 209.934 11.2889 210.417 11.0758C210.9 10.8599 211.446 10.752 212.057 10.752C212.676 10.752 213.219 10.8599 213.685 11.0758C214.154 11.2889 214.522 11.5858 214.789 11.9664C215.056 12.3443 215.194 12.7789 215.202 13.2704H213.681Z" fill="white"/>
<path d="M218.312 10.8713V19.5985H216.731V10.8713H218.312Z" fill="white"/>
<path d="M227.196 10.8713V19.5985H225.789L221.677 13.6539H221.605V19.5985H220.024V10.8713H221.439L225.547 16.8201H225.623V10.8713H227.196Z" fill="white"/>
<path d="M230.499 10.8713V19.5985H228.918V10.8713H230.499Z" fill="white"/>
<path d="M239.383 10.8713V19.5985H237.977L233.865 13.6539H233.792V19.5985H232.211V10.8713H233.626L237.734 16.8201H237.811V10.8713H239.383Z" fill="white"/>
<path d="M48 26.4561H50.0656L52.8318 33.0762H52.941L55.7072 26.4561H57.7728V35.5922H56.1531V29.3156H56.0667L53.4915 35.5654H52.2813L49.7061 29.3022H49.6197V35.5922H48V26.4561Z" fill="white"/>
<path d="M65.4846 26.4561H67.1726V32.4249C67.1726 33.0792 67.0148 33.6546 66.6994 34.1513C66.387 34.6479 65.9472 35.036 65.38 35.3156C64.8128 35.5922 64.15 35.7305 63.3917 35.7305C62.6304 35.7305 61.9662 35.5922 61.399 35.3156C60.8318 35.036 60.392 34.6479 60.0795 34.1513C59.7671 33.6546 59.6109 33.0792 59.6109 32.4249V26.4561H61.2989V32.2866C61.2989 32.6673 61.3838 33.0063 61.5537 33.3037C61.7265 33.6011 61.9692 33.8346 62.2816 34.0041C62.594 34.1706 62.9641 34.2539 63.3917 34.2539C63.8194 34.2539 64.1895 34.1706 64.5019 34.0041C64.8173 33.8346 65.06 33.6011 65.2298 33.3037C65.3997 33.0063 65.4846 32.6673 65.4846 32.2866V26.4561ZM62.0314 25.4479C61.7918 25.4479 61.584 25.3647 61.4081 25.1981C61.2352 25.0316 61.1487 24.8353 61.1487 24.6093C61.1487 24.3714 61.2352 24.1721 61.4081 24.0115C61.584 23.8479 61.7918 23.7662 62.0314 23.7662C62.2771 23.7662 62.4833 23.8479 62.6501 24.0115C62.82 24.1721 62.9049 24.3714 62.9049 24.6093C62.9049 24.8353 62.82 25.0316 62.6501 25.1981C62.4833 25.3647 62.2771 25.4479 62.0314 25.4479ZM64.7612 25.4479C64.5216 25.4479 64.3138 25.3647 64.1379 25.1981C63.965 25.0316 63.8786 24.8353 63.8786 24.6093C63.8786 24.3714 63.965 24.1721 64.1379 24.0115C64.3138 23.8479 64.5216 23.7662 64.7612 23.7662C65.0069 23.7662 65.2132 23.8479 65.38 24.0115C65.5498 24.1721 65.6348 24.3714 65.6348 24.6093C65.6348 24.8353 65.5498 25.0316 65.38 25.1981C65.2132 25.3647 65.0069 25.4479 64.7612 25.4479Z" fill="white"/>
<path d="M72.1648 35.5922H69.0072V26.4561H72.2285C73.1536 26.4561 73.9483 26.639 74.6125 27.0048C75.2798 27.3676 75.7924 27.8896 76.1503 28.5706C76.5082 29.2517 76.6872 30.0665 76.6872 31.0152C76.6872 31.9669 76.5067 32.7847 76.1458 33.4688C75.7879 34.1528 75.2707 34.6777 74.5943 35.0435C73.921 35.4093 73.1111 35.5922 72.1648 35.5922ZM70.6952 34.1602H72.0829C72.732 34.1602 73.2734 34.0442 73.7071 33.8123C74.1409 33.5773 74.4669 33.2279 74.6853 32.7639C74.9037 32.297 75.0129 31.7141 75.0129 31.0152C75.0129 30.3163 74.9037 29.7364 74.6853 29.2755C74.4669 28.8115 74.1439 28.465 73.7162 28.236C73.2916 28.0041 72.7638 27.8881 72.1329 27.8881H70.6952V34.1602Z" fill="white"/>
<path d="M78.9871 35.5922H77.1854L80.4657 26.4561H82.5495L85.8344 35.5922H84.0327L81.544 28.3297H81.4712L78.9871 35.5922ZM79.0462 32.01H83.9599V33.3394H79.0462V32.01Z" fill="white"/>
<path d="M87.0617 35.5922V26.4561H93.031V27.8435H88.7497V30.3238H92.6215V31.7111H88.7497V35.5922H87.0617Z" fill="white"/>
<path d="M96.2567 26.4561V35.5922H94.5688V26.4561H96.2567ZM95.415 25.4836C95.1511 25.4836 94.9252 25.3989 94.7371 25.2294C94.5521 25.0569 94.4596 24.8502 94.4596 24.6093C94.4596 24.3654 94.5536 24.1587 94.7417 23.9892C94.9297 23.8167 95.1542 23.7305 95.415 23.7305C95.6759 23.7305 95.8988 23.8167 96.0838 23.9892C96.2719 24.1587 96.3659 24.3654 96.3659 24.6093C96.3659 24.8502 96.2719 25.0569 96.0838 25.2294C95.8988 25.3989 95.6759 25.4836 95.415 25.4836Z" fill="white"/>
<path d="M101.861 35.7171C101.084 35.7171 100.408 35.5505 99.8317 35.2175C99.2584 34.8844 98.8125 34.407 98.4941 33.7855C98.1786 33.161 98.0209 32.413 98.0209 31.5416V30.5959H104.691V31.9654H99.7725V32.1572C99.7725 32.5974 99.8544 32.9736 100.018 33.2859C100.185 33.5952 100.423 33.8316 100.733 33.9952C101.045 34.1587 101.415 34.2405 101.843 34.2405C102.364 34.2405 102.797 34.126 103.139 33.897C103.485 33.665 103.743 33.3468 103.913 32.9424C104.083 32.5379 104.168 32.074 104.168 31.5505V30.5334C104.168 30.123 104.116 29.7513 104.013 29.4182C103.913 29.0851 103.754 28.8011 103.535 28.5662C103.32 28.3282 103.036 28.1453 102.684 28.0175C102.333 27.8896 101.905 27.8256 101.401 27.8256C101.144 27.8256 100.877 27.842 100.601 27.8747C100.328 27.9044 100.062 27.9491 99.8044 28.0085C99.5466 28.068 99.3069 28.1379 99.0855 28.2182L98.7716 26.8398C98.8808 26.7773 99.0355 26.7163 99.2357 26.6569C99.4359 26.5974 99.6633 26.5424 99.9181 26.4918C100.176 26.4412 100.446 26.4026 100.728 26.3758C101.01 26.3461 101.291 26.3312 101.57 26.3312C102.489 26.3312 103.273 26.5052 103.922 26.8531C104.571 27.2011 105.067 27.6903 105.41 28.3208C105.755 28.9513 105.928 29.6888 105.928 30.5334V31.5505C105.928 32.3535 105.76 33.0688 105.423 33.6963C105.09 34.3238 104.618 34.8175 104.008 35.1773C103.399 35.5372 102.683 35.7171 101.861 35.7171Z" fill="white"/>
<path d="M115.935 28.9676C115.893 28.5781 115.714 28.2747 115.399 28.0576C115.086 27.8405 114.68 27.732 114.179 27.732C113.827 27.732 113.526 27.784 113.274 27.8881C113.022 27.9922 112.83 28.1334 112.696 28.3119C112.563 28.4903 112.494 28.694 112.491 28.923C112.491 29.1134 112.535 29.2784 112.623 29.4182C112.714 29.558 112.837 29.6769 112.992 29.7751C113.146 29.8702 113.318 29.9505 113.506 30.016C113.694 30.0814 113.884 30.1364 114.075 30.181L114.948 30.3952C115.3 30.4754 115.638 30.584 115.963 30.7208C116.29 30.8576 116.583 31.0301 116.841 31.2383C117.102 31.4465 117.308 31.6978 117.46 31.9922C117.611 32.2866 117.687 32.6316 117.687 33.0271C117.687 33.5624 117.548 34.0338 117.269 34.4412C116.989 34.8457 116.586 35.1624 116.058 35.3914C115.534 35.6175 114.898 35.7305 114.152 35.7305C113.427 35.7305 112.798 35.6204 112.264 35.4004C111.733 35.1803 111.317 34.8591 111.017 34.4368C110.72 34.0145 110.559 33.5 110.535 32.8933H112.196C112.22 33.2115 112.32 33.4762 112.496 33.6873C112.672 33.8985 112.901 34.0561 113.183 34.1602C113.468 34.2643 113.786 34.3163 114.138 34.3163C114.505 34.3163 114.827 34.2628 115.103 34.1557C115.382 34.0457 115.6 33.894 115.758 33.7007C115.916 33.5044 115.996 33.2755 115.999 33.0137C115.996 32.7758 115.925 32.5795 115.785 32.4249C115.646 32.2673 115.45 32.1364 115.198 32.0323C114.95 31.9253 114.658 31.8301 114.325 31.7468L113.265 31.4792C112.497 31.2859 111.891 30.9929 111.445 30.6004C111.002 30.2048 110.781 29.6799 110.781 29.0256C110.781 28.4873 110.929 28.016 111.226 27.6115C111.527 27.207 111.935 26.8933 112.45 26.6702C112.966 26.4442 113.55 26.3312 114.202 26.3312C114.863 26.3312 115.443 26.4442 115.94 26.6702C116.44 26.8933 116.833 27.2041 117.118 27.6026C117.404 27.9981 117.551 28.4531 117.56 28.9676H115.935Z" fill="white"/>
<path d="M122.968 35.7171C122.192 35.7171 121.515 35.5505 120.939 35.2175C120.366 34.8844 119.92 34.407 119.601 33.7855C119.286 33.161 119.128 32.413 119.128 31.5416V30.5959H125.798V31.9654H120.88V32.1572C120.88 32.5974 120.962 32.9736 121.126 33.2859C121.292 33.5952 121.53 33.8316 121.84 33.9952C122.152 34.1587 122.522 34.2405 122.95 34.2405C123.472 34.2405 123.904 34.126 124.247 33.897C124.592 33.665 124.85 33.3468 125.02 32.9424C125.19 32.5379 125.275 32.074 125.275 31.5505V30.5334C125.275 30.123 125.223 29.7513 125.12 29.4182C125.02 29.0851 124.861 28.8011 124.643 28.5662C124.427 28.3282 124.144 28.1453 123.792 28.0175C123.44 27.8896 123.012 27.8256 122.509 27.8256C122.251 27.8256 121.984 27.842 121.708 27.8747C121.435 27.9044 121.17 27.9491 120.912 28.0085C120.654 28.068 120.414 28.1379 120.193 28.2182L119.879 26.8398C119.988 26.7773 120.143 26.7163 120.343 26.6569C120.543 26.5974 120.771 26.5424 121.025 26.4918C121.283 26.4412 121.553 26.4026 121.835 26.3758C122.117 26.3461 122.398 26.3312 122.677 26.3312C123.596 26.3312 124.38 26.5052 125.029 26.8531C125.678 27.2011 126.174 27.6903 126.517 28.3208C126.863 28.9513 127.036 29.6888 127.036 30.5334V31.5505C127.036 32.3535 126.867 33.0688 126.531 33.6963C126.197 34.3238 125.725 34.8175 125.116 35.1773C124.506 35.5372 123.79 35.7171 122.968 35.7171Z" fill="white"/>
<path d="M136.458 26.4561V35.5922H134.957L130.566 29.3691H130.489V35.5922H128.801V26.4561H130.311L134.697 32.6836H134.779V26.4561H136.458Z" fill="white"/>
<path d="M139.494 35.5922H137.692L140.973 26.4561H143.056L146.341 35.5922H144.54L142.051 28.3297H141.978L139.494 35.5922ZM139.553 32.01H144.467V33.3394H139.553V32.01Z" fill="white"/>
<path d="M145.981 26.4561H147.887L150.167 30.4978H150.257L152.537 26.4561H154.443L151.054 32.184V35.5922H149.37V32.184L145.981 26.4561Z" fill="white"/>
<path d="M155.639 35.5922V26.4561H161.699V27.8435H157.327V30.3238H161.385V31.7111H157.327V34.2048H161.735V35.5922H155.639Z" fill="white"/>
<path d="M168.485 28.9676C168.442 28.5781 168.263 28.2747 167.948 28.0576C167.636 27.8405 167.229 27.732 166.729 27.732C166.377 27.732 166.075 27.784 165.823 27.8881C165.572 27.9922 165.379 28.1334 165.245 28.3119C165.112 28.4903 165.044 28.694 165.041 28.923C165.041 29.1134 165.085 29.2784 165.173 29.4182C165.264 29.558 165.386 29.6769 165.541 29.7751C165.696 29.8702 165.867 29.9505 166.055 30.016C166.243 30.0814 166.433 30.1364 166.624 30.181L167.498 30.3952C167.849 30.4754 168.188 30.584 168.512 30.7208C168.84 30.8576 169.132 31.0301 169.39 31.2383C169.651 31.4465 169.857 31.6978 170.009 31.9922C170.161 32.2866 170.237 32.6316 170.237 33.0271C170.237 33.5624 170.097 34.0338 169.818 34.4412C169.539 34.8457 169.135 35.1624 168.608 35.3914C168.083 35.6175 167.448 35.7305 166.701 35.7305C165.976 35.7305 165.347 35.6204 164.813 35.4004C164.282 35.1803 163.867 34.8591 163.567 34.4368C163.269 34.0145 163.109 33.5 163.084 32.8933H164.745C164.769 33.2115 164.869 33.4762 165.045 33.6873C165.221 33.8985 165.45 34.0561 165.732 34.1602C166.017 34.2643 166.336 34.3163 166.688 34.3163C167.055 34.3163 167.376 34.2628 167.652 34.1557C167.931 34.0457 168.15 33.894 168.307 33.7007C168.465 33.5044 168.546 33.2755 168.549 33.0137C168.546 32.7758 168.474 32.5795 168.335 32.4249C168.195 32.2673 168 32.1364 167.748 32.0323C167.499 31.9253 167.208 31.8301 166.874 31.7468L165.814 31.4792C165.047 31.2859 164.44 30.9929 163.994 30.6004C163.551 30.2048 163.33 29.6799 163.33 29.0256C163.33 28.4873 163.479 28.016 163.776 27.6115C164.076 27.207 164.484 26.8933 165 26.6702C165.515 26.4442 166.099 26.3312 166.751 26.3312C167.413 26.3312 167.992 26.4442 168.489 26.6702C168.99 26.8933 169.383 27.2041 169.668 27.6026C169.953 27.9981 170.1 28.4531 170.109 28.9676H168.485Z" fill="white"/>
<path d="M173.429 26.4561V35.5922H171.741V26.4561H173.429ZM172.588 25.4836C172.324 25.4836 172.098 25.3989 171.91 25.2294C171.725 25.0569 171.632 24.8502 171.632 24.6093C171.632 24.3654 171.726 24.1587 171.914 23.9892C172.102 23.8167 172.327 23.7305 172.588 23.7305C172.848 23.7305 173.071 23.8167 173.256 23.9892C173.444 24.1587 173.538 24.3654 173.538 24.6093C173.538 24.8502 173.444 25.0569 173.256 25.2294C173.071 25.3989 172.848 25.4836 172.588 25.4836Z" fill="white"/>
<path d="M186.092 26.4561V35.5922H184.591L180.2 29.3691H180.123V35.5922H178.435V26.4561H179.946L184.332 32.6836H184.413V26.4561H186.092Z" fill="white"/>
<path d="M189.128 35.5922H187.326L190.607 26.4561H192.691L195.975 35.5922H194.174L191.685 28.3297H191.612L189.128 35.5922ZM189.187 32.01H194.101V33.3394H189.187V32.01Z" fill="white"/>
<path d="M197.03 35.5922V34.5617L201.807 27.8435H197.003V26.4561H203.9V27.4866L199.127 34.2048H203.927V35.5922H197.03Z" fill="white"/>
<path d="M207.249 26.4561V35.5922H205.561V26.4561H207.249ZM206.407 25.4836C206.143 25.4836 205.917 25.3989 205.729 25.2294C205.544 25.0569 205.451 24.8502 205.451 24.6093C205.451 24.3654 205.545 24.1587 205.734 23.9892C205.922 23.8167 206.146 23.7305 206.407 23.7305C206.668 23.7305 206.891 23.8167 207.076 23.9892C207.264 24.1587 207.358 24.3654 207.358 24.6093C207.358 24.8502 207.264 25.0569 207.076 25.2294C206.891 25.3989 206.668 25.4836 206.407 25.4836Z" fill="white"/>
<path d="M209.076 35.5922V26.4561H212.571C213.286 26.4561 213.887 26.5781 214.372 26.8219C214.861 27.0658 215.229 27.4078 215.478 27.8479C215.73 28.2851 215.856 28.7952 215.856 29.3781C215.856 29.9639 215.728 30.4725 215.473 30.9037C215.222 31.332 214.85 31.6636 214.359 31.8985C213.867 32.1305 213.264 32.2465 212.548 32.2465H210.059V30.8725H212.32C212.739 30.8725 213.082 30.816 213.349 30.703C213.616 30.587 213.813 30.4189 213.94 30.1989C214.071 29.9758 214.136 29.7022 214.136 29.3781C214.136 29.0539 214.071 28.7773 213.94 28.5483C213.81 28.3163 213.611 28.1409 213.344 28.0219C213.077 27.9 212.733 27.839 212.311 27.839H210.764V35.5922H209.076ZM213.89 31.4524L216.197 35.5922H214.313L212.047 31.4524H213.89Z" fill="white"/>
<path d="M217.409 35.5922V26.4561H219.097V34.2048H223.201V35.5922H217.409Z" fill="white"/>
<path d="M226.354 26.4561V35.5922H224.666V26.4561H226.354ZM225.512 25.4836C225.248 25.4836 225.022 25.3989 224.834 25.2294C224.649 25.0569 224.557 24.8502 224.557 24.6093C224.557 24.3654 224.651 24.1587 224.839 23.9892C225.027 23.8167 225.251 23.7305 225.512 23.7305C225.773 23.7305 225.996 23.8167 226.181 23.9892C226.369 24.1587 226.463 24.3654 226.463 24.6093C226.463 24.8502 226.369 25.0569 226.181 25.2294C225.996 25.3989 225.773 25.4836 225.512 25.4836Z" fill="white"/>
<path d="M227.545 26.4561H229.451L231.731 30.4978H231.822L234.101 26.4561H236.007L232.618 32.184V35.5922H230.934V32.184L227.545 26.4561Z" fill="white"/>
<path d="M238.891 26.4561V35.5922H237.203V26.4561H238.891ZM238.049 25.4836C237.785 25.4836 237.559 25.3989 237.371 25.2294C237.186 25.0569 237.094 24.8502 237.094 24.6093C237.094 24.3654 237.188 24.1587 237.376 23.9892C237.564 23.8167 237.788 23.7305 238.049 23.7305C238.31 23.7305 238.533 23.8167 238.718 23.9892C238.906 24.1587 239 24.3654 239 24.6093C239 24.8502 238.906 25.0569 238.718 25.2294C238.533 25.3989 238.31 25.4836 238.049 25.4836Z" fill="white"/>
</svg>
